<svg id="Layer_1" xmlns="http://www.w3.org/2000/svg" version="1.1" viewBox="0 0 199.07 221.82"><defs><style>
      .st0 {
        fill: #ffd455;
      }
    </style></defs><path class="st0" d="M157.89,218.39c.67,3.14-3.58,4.79-5.21,2.02-15.33-26.15-46.38-74.9-68.81-82.6-16.19-5.55-56.27,6.55-80.1,14.79-3.04,1.05-5.2-2.98-2.64-4.93,18.29-13.91,46.83-37.21,55.9-53.56,1.73-3.12-.11-6.13-9.02-11.25-2.57-1.48-1.45-5.39,1.51-5.29,12.67.43,18.42-2.25,18.68-6.63,1.28-22.21-4.55-50.08-8.96-67.41-.77-3.01,3.17-4.87,5.02-2.38,10.88,14.63,29.73,36.41,49.63,43.23,17.05,5.85,58.93-11.26,81.15-21.35,2.84-1.29,5.38,2.3,3.2,4.55-15.44,15.93-43.02,45.23-57.6,65.78-4.51,6.36,18.89,14.42,42.96,23.3,2.91,1.07,2.22,5.37-.87,5.49-14.58.57-38.74-.08-38.64,3.41.74,27.59,8.74,69.04,13.79,92.82Z"></path></svg>