<svg id="Layer_1" xmlns="http://www.w3.org/2000/svg" xmlns:xlink="http://www.w3.org/1999/xlink" version="1.1" viewBox="0 0 815.9 468.02"><defs><style>
      .st0, .st1, .st2, .st3, .st4 {
        fill: none;
      }
      .st5 {
        fill: #2b2b2b;
      }
      .st6 {
        stroke-width: 5.47px;
      }
      .st6, .st7 {
        fill: #79c258;
        stroke: #66a543;
      }
      .st6, .st7, .st1, .st8, .st9, .st10, .st11, .st12, .st13, .st2, .st3, .st4, .st14 {
        stroke-miterlimit: 10;
      }
      .st7 {
        stroke-width: 4.84px;
      }
      .st1 {
        stroke: #2b2b2b;
        stroke-width: 12.05px;
      }
      .st1, .st2 {
        stroke-linecap: round;
      }
      .st15 {
        fill: #371b45;
      }
      .st8 {
        fill: #24497f;
        stroke: #1e437c;
      }
      .st8, .st10, .st13, .st3, .st4, .st14 {
        stroke-width: 10px;
      }
      .st16 {
        fill: #fff;
      }
      .st9 {
        fill: #ffd456;
        stroke: #e2b137;
        stroke-width: 6.27px;
      }
      .st17 {
        fill: #4495b2;
      }
      .st10 {
        fill: #9f999a;
        stroke: #7c7a79;
      }
      .st11 {
        fill: #60ad54;
        stroke: #529643;
      }
      .st11, .st12 {
        stroke-width: 7px;
      }
      .st12 {
        fill: #93d9f8;
        stroke: #59a9c5;
      }
      .st13 {
        fill: #5a73b8;
      }
      .st13, .st14 {
        stroke: #3e5da3;
      }
      .st2 {
        stroke: #d9f1fb;
        stroke-width: 20px;
      }
      .st3 {
        stroke: #4e6284;
      }
      .st4 {
        stroke: #34549b;
      }
      .st14 {
        fill: #4162ad;
      }
      .st18 {
        clip-path: url(#clippath);
      }
    </style><clipPath id="clippath"><path class="st0" d="M623.85,221.09c0-113.98-93.26-207.24-207.24-207.24h-17.31c-113.98,0-207.24,93.26-207.24,207.24v47.96h0c0,24.31,96.66,44.02,215.89,44.02s215.89-19.71,215.89-44.02c0,0,0,0,0,0v-47.96Z"></path></clipPath></defs><g><g><ellipse class="st10" cx="407.95" cy="436.34" rx="49.49" ry="19.93"></ellipse><g><ellipse class="st10" cx="284.11" cy="428.04" rx="19.93" ry="49.49" transform="translate(-187.62 631.53) rotate(-79.76)"></ellipse><ellipse class="st10" cx="531.8" cy="428.04" rx="49.49" ry="19.93" transform="translate(-67.62 101.35) rotate(-10.24)"></ellipse></g><path class="st14" d="M407.95,257.68c-133.47,0-241.67,27.07-241.67,74.42,0,85.81,108.2,97.06,241.67,97.06s241.67-11.25,241.67-97.06c0-47.35-108.2-74.42-241.67-74.42Z"></path><path class="st8" d="M800.95,322.55c0,45.67-178.48,82.69-393,82.69S14.95,368.22,14.95,322.55c0-83.85,178.48-82.69,393-82.69s393-1.16,393,82.69Z"></path><ellipse class="st13" cx="407.95" cy="305.16" rx="393" ry="80.13"></ellipse><g><g><path class="st3" d="M151.04,367.57s23.49-62.56,82.03-76.64"></path><path class="st3" d="M664.86,367.57s-23.49-62.56-82.03-76.64"></path></g><ellipse class="st4" cx="407.95" cy="305.16" rx="393" ry="80.13"></ellipse></g></g><g><ellipse class="st9" cx="407.95" cy="351.22" rx="22.85" ry="13.79"></ellipse><g><g><ellipse class="st9" cx="261.34" cy="339.42" rx="13.81" ry="22.83" transform="translate(-101.74 566.75) rotate(-84.46)"></ellipse><ellipse class="st9" cx="101.41" cy="313.07" rx="13.83" ry="22.78" transform="translate(-224.17 360.92) rotate(-80.41)"></ellipse></g><g><ellipse class="st9" cx="554.56" cy="339.42" rx="22.83" ry="13.81" transform="translate(-30.2 55.17) rotate(-5.54)"></ellipse><ellipse class="st9" cx="714.49" cy="313.07" rx="22.78" ry="13.83" transform="translate(-42.16 123.37) rotate(-9.59)"></ellipse></g></g></g><ellipse class="st16" cx="407.95" cy="273.25" rx="223.64" ry="47.31"></ellipse><ellipse class="st15" cx="407.95" cy="269.05" rx="215.89" ry="44.02"></ellipse><path class="st12" d="M196.02,268.35c-2.07.36-3.96-1.22-3.96-3.32v-43.94c0-113.98,93.26-207.24,207.24-207.24h17.31c113.98,0,207.24,93.26,207.24,207.24v43.96c0,2.09-1.88,3.67-3.94,3.33-147.25-24.78-288.3-23.79-423.88-.03Z"></path><g class="st18"><g><g><path class="st11" d="M427.52,343.17s43.74,26.15,94.14-38.87c16.35-21.1-34.12-28.91-55.16-6.94-14.47,15.11-32-3.96-32-3.96"></path><path class="st11" d="M322.44,302.37s-49.92-10.22-43.25-92.21c2.17-26.6,44.69,1.69,45.4,32.09.49,20.91,26.29,18.67,26.29,18.67"></path></g><g><rect class="st6" x="298.1" y="345.96" width="45.28" height="65.59" rx="19.62" ry="19.62" transform="translate(158.81 -90.4) rotate(21.22)"></rect><rect class="st6" x="354.6" y="367.89" width="45.28" height="65.59" rx="19.62" ry="19.62" transform="translate(170.58 -109.36) rotate(21.22)"></rect></g><path class="st7" d="M347.65,393.17c-43.59-16.92-66.96-33.49-39.02-87.11,27.77-53.28,58.48-73.86,95.87-59.34,37.39,14.52,46.17,50.43,30.72,108.49-15.55,58.43-43.98,54.89-87.57,37.97Z"></path><path class="st11" d="M400.72,256.46c-49.43-19.19-81.33-24.07-96.05,34.67-14.63,58.38-3.2,95.32,39.2,111.78,42.4,16.46,75.76-3.09,104.35-56.05,28.77-53.29,1.93-71.21-47.5-90.4Z"></path><g><path class="st11" d="M388.88,286.97s-72.19-27.36-63.96-109.71c0,0,3.89-52.76,50.12-68.08,14.83-4.91,33.61-5.31,49.54-4.32,11.12.7,21.98,3.1,32.24,7.08,10.25,3.98,19.89,9.53,28.57,16.52,12.43,10.01,26.02,22.98,33.65,36.62,23.79,42.5-8.94,84.06-8.94,84.06-49.49,66.33-121.23,37.82-121.23,37.82"></path><g><path class="st1" d="M369.61,156.91s16.82,20.99,20.09,59.19"></path><path class="st1" d="M408.04,168.86s-17.59,25.4-54.02,33.39"></path></g><g><path class="st1" d="M447.16,187.02s16.82,20.99,20.09,59.19"></path><path class="st1" d="M485.59,198.97s-17.59,25.4-54.02,33.39"></path></g></g><path class="st5" d="M404.79,245.99c6.14,2.39,11.16,10.84,9.75,14.45-1.43,3.68-10.81,6.47-16.95,4.08s-11.16-10.84-9.75-14.45c1.43-3.68,10.81-6.47,16.95-4.08Z"></path></g></g><path class="st2" d="M239.18,144.34s28.6-68.67,86.19-86.39"></path></g><path class="st17" d="M469.76,71.88l-13.03-1.49c-2.53-.29-3.4,3.26-1.03,4.18l15.45,6c1.01.39,1.58,1.48,1.32,2.54l-4.76,19.45c-.5,2.03,1.89,3.52,3.5,2.18l14.99-12.52c.8-.67,1.96-.67,2.77-.01l22.27,18.25c1.75,1.43,4.25-.43,3.38-2.51l-8.48-20.34c-.41-.98-.05-2.12.86-2.68l24.72-15.28c1.94-1.2.95-4.2-1.33-4.01l-25.89,2.23c-.54.05-1.09-.11-1.52-.45l-32.83-25.53c-1.6-1.24-3.88.19-3.45,2.17l5.42,25.22c.31,1.45-.89,2.78-2.37,2.61Z"></path><path class="st17" d="M247.54,227.11l5.71,7.51c1.11,1.46,3.38.15,2.68-1.54l-4.56-11.01c-.3-.72-.02-1.56.66-1.95l12.47-7.2c1.3-.75.89-2.73-.61-2.9l-13.96-1.56c-.74-.08-1.32-.68-1.38-1.43l-1.6-20.64c-.13-1.62-2.33-1.99-2.98-.5l-6.34,14.52c-.31.7-1.08,1.08-1.82.89l-20.23-5.24c-1.59-.41-2.65,1.6-1.42,2.68l14.03,12.34c.3.26.48.62.52,1.01l3.07,29.75c.15,1.45,2.03,1.92,2.84.71l10.4-15.36c.6-.88,1.89-.92,2.53-.07Z"></path></svg>