<svg xmlns="http://www.w3.org/2000/svg" version="1.1" viewBox="0 0 452.73 775.96"><defs><style>
      .st0 {
        fill: #fff;
        stroke: #e8e8e8;
      }
      .st0, .st1, .st2, .st3, .st4, .st5 {
        stroke-width: 5px;
      }
      .st0, .st3 {
        stroke-linejoin: round;
      }
      .st6 {
        fill: #fff6e4;
      }
      .st1 {
        fill: #e17726;
        stroke: #ce6528;
      }
      .st1, .st2, .st4, .st5 {
        stroke-miterlimit: 10;
      }
      .st7 {
        isolation: isolate;
      }
      .st8, .st9, .st10 {
        fill: #b0b0b1;
      }
      .st11, .st5 {
        fill: #a54d2c;
      }
      .st9, .st10, .st12 {
        opacity: .5;
      }
      .st9, .st13 {
        mix-blend-mode: screen;
      }
      .st10, .st12 {
        mix-blend-mode: multiply;
      }
      .st2 {
        fill: #f57f22;
        stroke: #dc6926;
      }
      .st14, .st12 {
        fill: #683e1c;
      }
      .st3 {
        fill: #ffd456;
        stroke: #edbc44;
      }
      .st13 {
        fill: #be7338;
        opacity: .7;
      }
      .st4 {
        fill: #984321;
      }
      .st4, .st5 {
        stroke: #91391f;
      }
    </style></defs><g class="st7"><g id="Layer_1"><g><g><path class="st5" d="M189.65,430.74c0-24.05,20.23-43.48,44.57-42.17,21.97,1.19,39.9,20.86,39.9,42.86v41.61c0,5.16-2.79,9.67-6.95,12.09-2.07,1.22-4.48,1.91-7.05,1.91s-4.98-.69-7.05-1.91c-4.16-2.42-6.95-6.93-6.95-12.09v-41.96c0-7.07-5.02-13.35-12.01-14.41-8.83-1.34-16.46,5.5-16.46,14.06,0,5.44-2.89,10.56-7.89,12.7-10.24,4.39-20.11-2.99-20.11-12.7Z"></path><g><path class="st0" d="M233.41,24.29v10.93c-2.32-.71-4.67-1.07-7.05-1.07s-4.73.36-7.05,1.07v-10.68c0-3.5,2.44-6.65,5.89-7.2,2.39-.38,4.61.45,6.14,1.98,1.28,1.28,2.07,3.04,2.07,4.98Z"></path><path class="st0" d="M233.41,214.48v144.79c-2.07-1.22-4.48-1.91-7.05-1.91s-4.98.69-7.05,1.91v-144.79c2.33-.15,4.68-.23,7.05-.23s4.72.08,7.05.23Z"></path><path class="st0" d="M219.31,34.27c2.34-.08,4.69-.12,7.05-.12-2.38,0-4.73.36-7.05,1.07-34.46,10.51-61.99,97.3-65.95,207.11l-.67.28c-19.42-17.63-45.13-28.36-73.31-28.36-23.87,0-45.97,7.7-63.97,20.77C20.69,125.5,109.37,37.87,219.31,34.27Z"></path><path class="st0" d="M437.32,235.03c-18-13.08-40.1-20.78-63.98-20.78-28.19,0-53.89,10.72-73.31,28.36l-.67-.28c-3.96-109.81-31.49-196.6-65.95-207.11-2.32-.71-4.67-1.07-7.05-1.07,2.36,0,4.71.04,7.05.12,109.96,3.6,198.64,91.23,203.91,200.76Z"></path><path class="st3" d="M299.36,242.33c-17.74-15.99-40.69-26.24-65.95-27.85-2.33-.15-4.68-.23-7.05-.23s-4.72.08-7.05.23c-25.26,1.61-48.21,11.86-65.95,27.85,3.96-109.81,31.49-196.6,65.95-207.11,2.32-.71,4.67-1.07,7.05-1.07s4.73.36,7.05,1.07c34.46,10.51,61.99,97.3,65.95,207.11Z"></path><path class="st3" d="M296.83,413.67c0,24.05-20.23,43.48-44.57,42.17-21.97-1.19-39.9-20.86-39.9-42.86v-41.61c0-5.16,2.79-9.67,6.95-12.09,2.07-1.22,4.48-1.91,7.05-1.91s4.98.69,7.05,1.91c4.16,2.42,6.95,6.93,6.95,12.09v41.96c0,7.07,5.02,13.35,12.01,14.41,8.83,1.34,16.46-5.5,16.46-14.06,0-5.44,2.89-10.56,7.89-12.7,10.24-4.39,20.11,2.99,20.11,12.7Z"></path></g><path class="st5" d="M240.29,389.38v29.91c3.58,2.7,5.83,7.06,5.83,11.8v41.96c0,5.16,2.79,9.67,6.95,12.09,2.07,1.22,4.48,1.91,7.05,1.91s4.98-.69,7.05-1.91c4.16-2.42,6.95-6.93,6.95-12.09v-41.61c0-19.94-14.72-37.96-33.83-42.05Z"></path><g><rect class="st11" x="81.89" y="458.72" width="300" height="300" rx="8.49" ry="8.49"></rect><rect class="st1" x="202.22" y="428.16" width="59.34" height="361.11" transform="translate(498.35 14.32) rotate(45)"></rect><path class="st6" d="M241.92,642.83c-2.34,1.3-5.01,2.31-8,3.03-3,.72-6.02,1.07-9.08,1.07s-5.99-.45-8.78-1.37c-2.8-.91-5.04-2.34-6.73-4.29-1.69-1.82-2.83-4.07-3.42-6.73-.59-2.67-.72-5.43-.39-8.3.32-2.86.98-5.69,1.95-8.49.98-2.8,2.18-5.17,3.61-7.12,1.95-2.6,4.39-4.75,7.32-6.44,2.93-1.69,5.95-3.25,9.08-4.68,3.12-1.43,6.11-3.03,8.98-4.78,2.86-1.76,5.2-4,7.03-6.73,1.56-2.6,2.18-5.14,1.85-7.61-.33-2.47-1.27-4.49-2.83-6.05-1.56-1.56-3.58-2.5-6.05-2.83-2.47-.32-4.95.36-7.42,2.05-.91.65-1.85,1.99-2.83,4-.98,2.02-1.92,4.23-2.83,6.64-.91,2.41-1.76,4.72-2.54,6.93-.78,2.21-1.43,3.84-1.95,4.88-1.82,3.25-4.1,5.56-6.83,6.93-2.73,1.37-5.66,1.99-8.78,1.85-3.12-.13-6.34-.91-9.66-2.34-3.32-1.43-6.34-3.32-9.08-5.66-2.73-2.34-4.29-5.3-4.68-8.88-.39-3.58-.03-7.32,1.07-11.22,1.1-3.9,2.64-7.81,4.59-11.71,1.95-3.9,3.9-7.42,5.86-10.54,2.73-4.55,6.34-8.39,10.83-11.52,4.49-3.12,9.4-5.53,14.74-7.22,5.33-1.69,10.86-2.64,16.59-2.83,5.72-.2,11.25.39,16.59,1.76,5.33,1.37,10.28,3.48,14.83,6.34,4.55,2.86,8.26,6.51,11.13,10.93,2.21,3.51,4.1,7.51,5.66,12,1.56,4.49,2.34,9.17,2.34,14.05s-1.01,9.73-3.03,14.54c-2.02,4.82-5.37,9.31-10.05,13.47-1.43,1.17-3.51,2.6-6.25,4.29-2.73,1.69-5.44,3.48-8.1,5.37-2.67,1.89-4.98,3.81-6.93,5.76-1.95,1.95-2.86,3.9-2.73,5.86.13,2.73-.1,5.66-.68,8.78-.59,3.12-2.05,5.4-4.39,6.83ZM247.38,674.84c-1.04,1.95-2.57,3.64-4.59,5.07-2.02,1.43-4.26,2.54-6.73,3.32-2.47.78-5.01,1.24-7.61,1.37-2.6.13-5.01-.07-7.22-.59-1.69-.39-3.39-.98-5.07-1.76-1.69-.78-3.12-1.89-4.29-3.32-1.17-1.3-1.99-2.8-2.44-4.49-.46-1.69-.65-3.45-.59-5.27.06-1.82.42-3.61,1.07-5.37.65-1.76,1.49-3.28,2.54-4.59.65-.78,1.43-1.46,2.34-2.05.91-.59,1.88-1.2,2.93-1.85,3.64-1.82,7.71-2.89,12.2-3.22,4.49-.32,8.62.42,12.39,2.24,1.82.78,3.38,2.15,4.68,4.1,1.43,2.34,2.15,5.04,2.15,8.1s-.59,5.83-1.76,8.3Z"></path><rect class="st2" x="81.89" y="458.72" width="59.34" height="300" rx="8.49" ry="8.49"></rect><rect class="st2" x="322.55" y="458.72" width="59.34" height="300" rx="8.49" ry="8.49"></rect><rect class="st4" x="202.22" y="338.39" width="59.34" height="300" rx="8.49" ry="8.49" transform="translate(720.28 256.5) rotate(90)"></rect><rect class="st4" x="202.22" y="579.05" width="59.34" height="300" rx="8.49" ry="8.49" transform="translate(960.94 497.16) rotate(90)"></rect><g><path class="st13" d="M353.1,728.29c-.4,1.68-1.02,3.33-1.06,5.05-.03,1.22.24,2.43.41,3.63.47,2.81,1.26,6.09.43,8.82-.72-3.23-1.43-6.23-3.27-9.13-1.02-1.61-2.15-3.41-1.79-5.28,0,0,0,0,0,0-.1-.17-.21-.32-.35-.44-.46-.4-.99-.72-1.45-1.12-.94-.83-1.58-2.22-2.69-2.78,1.85.54,3.61,1.56,5.23,2.6.23-.39.48-.78.71-1.17,2.08-3.47,3.56-7.61,4.13-11.62,1.27,3.66.59,7.69-.31,11.45Z"></path><path class="st14" d="M353.97,728.29c-.4,1.68-1.02,3.33-1.06,5.05-.03,1.22.24,2.43.41,3.63.47,2.81.39,6.09-.44,8.82-.72-3.23-.56-6.23-2.4-9.13-1.02-1.61-2.15-3.41-1.79-5.28,0,0,0,0,0,0-.1-.17-.21-.32-.35-.44-.46-.4-.99-.72-1.45-1.12-.94-.83-1.58-2.02-2.69-2.58,1.85.54,3.61,1.36,5.23,2.39.23-.39.48-.78.71-1.17,2.08-3.47,2.69-7.61,3.26-11.62,1.27,3.66,1.46,7.69.56,11.45Z"></path><g><path class="st12" d="M356.45,730.5c-.11-1.19-.44-2.4-1.28-3.3-1.18-1.28-3.91-2.29-5.55-1.32-.97.58-1.58,1.56-1.91,2.6-.03.08-.06.16-.07.24-.41,1.49-.28,3.17.52,4.51.17.27.35.52.58.77,1.49,1.63,4.38,1.93,6.17.7.51-.35.93-.83,1.2-1.43.39-.87.43-1.83.34-2.76Z"></path><path class="st8" d="M355.72,731.34c-.1-1.08-.4-2.19-1.17-3.01-1.09-1.16-3.6-2.09-5.11-1.2-.89.53-1.46,1.43-1.76,2.37-.03.07-.05.14-.07.22-.38,1.36-.26,2.89.48,4.11.15.25.33.48.53.7,1.37,1.49,4.03,1.76,5.67.64.47-.32.86-.76,1.11-1.31.36-.79.39-1.66.32-2.52Z"></path><path class="st10" d="M355.72,731.34c-.1-1.08-.4-2.19-1.17-3.01-1.09-1.16-3.6-2.09-5.11-1.2-.89.53-1.46,1.43-1.76,2.37.99-.33,2.14-.25,3.1.18,1.22.53,2.14,1.55,2.7,2.69.31.64.44,1.87.81,2.8.47-.32.86-.76,1.11-1.31.36-.79.39-1.66.32-2.52Z"></path><path class="st9" d="M348.56,733.05c-.08-.22-.11-.5.06-.67.2-.2.56-.15.83-.04.55.22,1.01.6,1.37,1.05.13.17.26.36.3.57.18.78-.68.93-1.23.61-.62-.35-1.11-.87-1.33-1.52Z"></path></g></g><g><path class="st13" d="M105.77,483.09c.4,1.68,1.02,3.33,1.06,5.05.03,1.22-.24,2.43-.41,3.63-.47,2.81-1.26,6.09-.43,8.82.72-3.23,1.43-6.23,3.27-9.13,1.02-1.61,2.15-3.41,1.79-5.28,0,0,0,0,0,0,.1-.17.21-.32.35-.44.46-.4.99-.72,1.45-1.12.94-.83,1.58-2.22,2.69-2.78-1.85.54-3.61,1.56-5.23,2.6-.23-.39-.48-.78-.71-1.17-2.08-3.47-3.56-7.61-4.13-11.62-1.27,3.66-.59,7.69.31,11.45Z"></path><path class="st14" d="M104.9,483.09c.4,1.68,1.02,3.33,1.06,5.05.03,1.22-.24,2.43-.41,3.63-.47,2.81-.39,6.09.44,8.82.72-3.23.56-6.23,2.4-9.13,1.02-1.61,2.15-3.41,1.79-5.28,0,0,0,0,0,0,.1-.17.21-.32.35-.44.46-.4.99-.72,1.45-1.12.94-.83,1.58-2.02,2.69-2.58-1.85.54-3.61,1.36-5.23,2.39-.23-.39-.48-.78-.71-1.17-2.08-3.47-2.69-7.61-3.26-11.62-1.27,3.66-1.46,7.69-.56,11.45Z"></path><g><path class="st12" d="M102.43,485.3c.11-1.19.44-2.4,1.28-3.3,1.18-1.28,3.91-2.29,5.55-1.32.97.58,1.58,1.56,1.91,2.6.03.08.06.16.07.24.41,1.49.28,3.17-.52,4.51-.17.27-.35.52-.58.77-1.49,1.63-4.38,1.93-6.17.7-.51-.35-.93-.83-1.2-1.43-.39-.87-.43-1.83-.34-2.76Z"></path><path class="st8" d="M103.15,486.15c.1-1.08.4-2.19,1.17-3.01,1.09-1.16,3.6-2.09,5.11-1.2.89.53,1.46,1.43,1.76,2.37.03.07.05.14.07.22.38,1.36.26,2.89-.48,4.11-.15.25-.33.48-.53.7-1.37,1.49-4.03,1.76-5.67.64-.47-.32-.86-.76-1.11-1.31-.36-.79-.39-1.66-.32-2.52Z"></path><path class="st10" d="M103.15,486.15c.1-1.08.4-2.19,1.17-3.01,1.09-1.16,3.6-2.09,5.11-1.2.89.53,1.46,1.43,1.76,2.37-.99-.33-2.14-.25-3.1.18-1.22.53-2.14,1.55-2.7,2.69-.31.64-.44,1.87-.81,2.8-.47-.32-.86-.76-1.11-1.31-.36-.79-.39-1.66-.32-2.52Z"></path><path class="st9" d="M110.31,487.86c.08-.22.11-.5-.06-.67-.2-.2-.56-.15-.83-.04-.55.22-1.01.6-1.37,1.05-.13.17-.26.36-.3.57-.18.78.68.93,1.23.61.62-.35,1.11-.87,1.33-1.52Z"></path></g></g><g><path class="st13" d="M112.68,732.17c-1.3,1.13-2.48,2.44-4,3.26-1.07.58-2.26.9-3.42,1.3-2.71.88-5.99,1.68-8.03,3.68,3.2-.85,6.19-1.6,9.61-1.3,1.9.16,4.02.34,5.51-.84,0,0,0,0,0,0,.2.01.39.04.56.11.57.22,1.1.55,1.67.77,1.16.45,2.7.38,3.71,1.11-1.33-1.39-3.05-2.49-4.71-3.45.24-.39.47-.78.71-1.17,2.13-3.45,5.11-6.66,8.41-9.01-3.83.56-7.1,3.01-10.03,5.54Z"></path><path class="st14" d="M112.28,731.39c-1.3,1.13-2.48,2.44-4,3.26-1.07.58-2.26.9-3.42,1.3-2.71.88-5.59,2.46-7.63,4.45,3.2-.85,5.79-2.37,9.21-2.07,1.9.16,4.02.34,5.51-.84,0,0,0,0,0,0,.2.01.39.04.56.11.57.22,1.1.55,1.67.77,1.17.45,2.52.47,3.53,1.21-1.33-1.39-2.87-2.58-4.53-3.54.24-.39.47-.78.71-1.17,2.13-3.45,5.52-5.89,8.81-8.24-3.83.56-7.5,2.24-10.43,4.77Z"></path><g><path class="st12" d="M109.18,730.21c1.11-.45,2.34-.72,3.52-.39,1.68.46,3.83,2.42,3.73,4.32-.07,1.13-.66,2.13-1.43,2.89-.06.06-.11.12-.18.18-1.14,1.05-2.69,1.71-4.25,1.61-.32-.02-.63-.07-.95-.16-2.14-.57-3.73-3-3.46-5.16.07-.62.31-1.21.72-1.73.59-.75,1.42-1.22,2.29-1.58Z"></path><path class="st8" d="M108.77,731.24c1.01-.41,2.13-.65,3.21-.34,1.53.43,3.51,2.24,3.42,3.98-.06,1.03-.6,1.95-1.3,2.65-.05.06-.1.11-.16.16-1.04.96-2.45,1.56-3.87,1.46-.29-.02-.57-.07-.87-.15-1.95-.53-3.42-2.77-3.18-4.74.07-.57.28-1.11.65-1.58.53-.68,1.3-1.12,2.09-1.44Z"></path><path class="st10" d="M108.77,731.24c1.01-.41,2.13-.65,3.21-.34,1.53.43,3.51,2.24,3.42,3.98-.06,1.03-.6,1.95-1.3,2.65-.16-1.04-.77-2.02-1.58-2.67-1.03-.84-2.37-1.19-3.63-1.16-.71.02-1.86.47-2.86.56.07-.57.28-1.11.65-1.58.53-.68,1.3-1.12,2.09-1.44Z"></path><path class="st9" d="M110.54,738.39c.23-.03.49-.13.57-.36.09-.27-.12-.57-.35-.76-.45-.39-1-.62-1.56-.73-.21-.04-.44-.06-.64,0-.77.2-.51,1.03.02,1.38.6.39,1.28.58,1.96.48Z"></path></g></g><g><path class="st13" d="M351.09,486.77c1.3-1.13,2.48-2.44,4-3.26,1.07-.58,2.26-.9,3.42-1.3,2.71-.88,5.99-1.68,8.03-3.68-3.2.85-6.19,1.6-9.61,1.3-1.9-.16-4.02-.34-5.51.84,0,0,0,0,0,0-.2-.01-.39-.04-.56-.11-.57-.22-1.1-.55-1.67-.77-1.16-.45-2.7-.38-3.71-1.11,1.33,1.39,3.05,2.49,4.71,3.45-.24.39-.47.78-.71,1.17-2.13,3.45-5.11,6.66-8.41,9.01,3.83-.56,7.1-3.01,10.03-5.54Z"></path><path class="st14" d="M351.49,487.54c1.3-1.13,2.48-2.44,4-3.26,1.07-.58,2.26-.9,3.42-1.3,2.71-.88,5.59-2.46,7.63-4.45-3.2.85-5.79,2.37-9.21,2.07-1.9-.16-4.02-.34-5.51.84,0,0,0,0,0,0-.2-.01-.39-.04-.56-.11-.57-.22-1.1-.55-1.67-.77-1.17-.45-2.52-.47-3.53-1.21,1.33,1.39,2.87,2.58,4.53,3.54-.24.39-.47.78-.71,1.17-2.13,3.45-5.52,5.89-8.81,8.24,3.83-.56,7.5-2.24,10.43-4.77Z"></path><g><path class="st12" d="M354.59,488.73c-1.11.45-2.34.72-3.52.39-1.68-.46-3.83-2.42-3.73-4.32.07-1.13.66-2.13,1.43-2.89.06-.06.11-.12.18-.18,1.14-1.05,2.69-1.71,4.25-1.61.32.02.63.07.95.16,2.14.57,3.73,3,3.46,5.16-.07.62-.31,1.21-.72,1.73-.59.75-1.42,1.22-2.29,1.58Z"></path><path class="st8" d="M355.01,487.69c-1.01.41-2.13.65-3.21.34-1.53-.43-3.51-2.24-3.42-3.98.06-1.03.6-1.95,1.3-2.65.05-.06.1-.11.16-.16,1.04-.96,2.45-1.56,3.87-1.46.29.02.57.07.87.15,1.95.53,3.42,2.77,3.18,4.74-.07.57-.28,1.11-.65,1.58-.53.68-1.3,1.12-2.09,1.44Z"></path><path class="st10" d="M355.01,487.69c-1.01.41-2.13.65-3.21.34-1.53-.43-3.51-2.24-3.42-3.98.06-1.03.6-1.95,1.3-2.65.16,1.04.77,2.02,1.58,2.67,1.03.84,2.37,1.19,3.63,1.16.71-.02,1.86-.47,2.86-.56-.07.57-.28,1.11-.65,1.58-.53.68-1.3,1.12-2.09,1.44Z"></path><path class="st9" d="M353.23,480.55c-.23.03-.49.13-.57.36-.09.27.12.57.35.76.45.39,1,.62,1.56.73.21.04.44.06.64,0,.77-.2.51-1.03-.02-1.38-.6-.39-1.28-.58-1.96-.48Z"></path></g></g></g></g><path class="st3" d="M242.92,421.68c-1.63-2.4-2.56-5.3-2.56-8.36v-41.96c0-5.16-2.79-9.67-6.95-12.09-2.07-1.22-4.48-1.91-7.05-1.91s-4.98.69-7.05,1.91c-4.16,2.42-6.95,6.93-6.95,12.09v41.61c0,18.78,13.07,35.86,30.56,41.19v-32.49Z"></path></g></g></g></svg>