<svg id="Layer_1" xmlns="http://www.w3.org/2000/svg" version="1.1" viewBox="0 0 406.01 526.62"><defs><style>
      .st0, .st1 {
        fill: #f4f4f0;
      }
      .st0, .st1, .st2, .st3, .st4, .st5, .st6, .st7, .st8, .st9 {
        stroke-miterlimit: 10;
      }
      .st0, .st1, .st6, .st7, .st8, .st9 {
        stroke-linecap: round;
      }
      .st0, .st1, .st7, .st8, .st9 {
        stroke: #231f20;
      }
      .st0, .st7, .st9 {
        stroke-width: 5.64px;
      }
      .st1 {
        stroke-width: 4px;
      }
      .st2 {
        stroke-width: 17.5px;
      }
      .st2, .st3, .st4, .st5, .st10 {
        stroke: #593010;
      }
      .st2, .st4, .st10 {
        fill: #743b19;
      }
      .st11 {
        fill: #593010;
      }
      .st3 {
        fill: #8e5f48;
      }
      .st3, .st4, .st10 {
        stroke-width: 6px;
      }
      .st5 {
        fill: #995a34;
        stroke-width: 4.62px;
      }
      .st6 {
        stroke: #f4f4f0;
        stroke-dasharray: 3.17;
        stroke-width: 1.32px;
      }
      .st6, .st9 {
        fill: none;
      }
      .st10 {
        stroke-linejoin: round;
      }
      .st7, .st8 {
        fill: #ffd348;
      }
      .st8 {
        stroke-width: 3.76px;
      }
    </style></defs><g><g><g><g><path class="st4" d="M177.54,400.48h-28.05c-9.06,0-16.48,8.14-16.48,18.09v37.23l-18.99,7.3c-9.48,3.64-15.82,13.46-15.82,24.48,0,9.95,7.41,18.09,16.48,18.09h62.86c9.06,0,16.48-8.14,16.48-18.09v-69.01c0-9.95-7.41-18.09-16.48-18.09Z"></path><path class="st4" d="M225.93,400.48h28.05c9.06,0,16.48,8.14,16.48,18.09v37.23l18.99,7.3c9.48,3.64,15.82,13.46,15.82,24.48,0,9.95-7.41,18.09-16.48,18.09h-62.86c-9.06,0-16.48-8.14-16.48-18.09v-69.01c0-9.95,7.41-18.09,16.48-18.09Z"></path></g><ellipse class="st0" cx="201.73" cy="338.84" rx="143.07" ry="118.97"></ellipse><path class="st0" d="M94.08,277.22c-15.68-19.54-24.92-43.53-24.92-69.45,0-65.71,59.35-118.97,132.57-118.97s132.57,53.27,132.57,118.97c0,25.27-8.78,48.69-23.74,67.96"></path><path class="st9" d="M94.08,277.22c-15.68-19.54-24.92-43.53-24.92-69.45,0-65.71,59.35-118.97,132.57-118.97s132.57,53.27,132.57,118.97c0,25.27-8.78,48.69-23.74,67.96"></path><path class="st7" d="M195.91,99.8s17.31-.07,28.97-16.68c2.62-3.73,6.45-5.7,10.07-2.11,7.44,7.39,6.77,20.91,1.07,29.13"></path></g><path class="st3" d="M327.48,393.86H75.99c-.7,0-1.36-.38-1.71-.99-5.14-8.99-7.8-15.22-10.41-22.6-.45-1.28.5-2.62,1.85-2.62h271.85c1.29,0,2.24,1.23,1.9,2.48-1.88,6.91-5.43,14.33-10.28,22.74-.35.61-1,.99-1.71.99Z"></path><g><path class="st2" d="M392.89,113.08c0,20.94-56.36,59.94-189.89,59.94S13.12,134.02,13.12,113.08s85.01-15.91,189.89-15.91,189.89-5.04,189.89,15.91Z"></path><path class="st2" d="M290.8,102.25c0,26.74-39.31,32.85-87.79,32.85s-87.79-6.11-87.79-32.85c0-6.68,2.46-63.1,6.9-68.9,13.33-17.38,44.53,9.3,80.89,9.3s66.11-27.23,79.94-10.5c5.05,6.11,7.86,62.95,7.86,70.1Z"></path></g><path class="st8" d="M213.22,303.56c2.35.9,4.83,2.27,6.45,4.23.85,1.03,2.12,3.37.46,4.29-.96.53-2.24.32-3.37-.03-.24-.07-.41.21-.25.4.27.3.52.61.72.83,1.21,1.36,2.2,2.94,2.71,4.7.38,1.29.59,2.78.26,4.1-.43,1.74-2.02,2.45-3.71,1.89-1.19-.39-2.42-1.19-3.4-2.04-.16-.14-.41-.02-.4.2.08,1.59.05,5.87-2.4,6.26-1.93.31-3.78-.86-4.77-2.47"></path><g><path class="st3" d="M327.48,393.86H75.99c-.7,0-1.36-.38-1.71-.99-5.14-8.99-7.8-15.22-10.41-22.6-.45-1.28.5-2.62,1.85-2.62h271.85c1.29,0,2.24,1.23,1.9,2.48-1.88,6.91-5.43,14.33-10.28,22.74-.35.61-1,.99-1.71.99Z"></path><g><rect class="st11" x="88.07" y="377.04" width="11.49" height="7.43" rx="3.36" ry="3.36"></rect><rect class="st11" x="124.01" y="377.04" width="11.49" height="7.43" rx="3.36" ry="3.36"></rect><rect class="st11" x="159.96" y="377.04" width="11.49" height="7.43" rx="3.36" ry="3.36"></rect><rect class="st11" x="195.9" y="377.04" width="11.49" height="7.43" rx="3.36" ry="3.36"></rect><rect class="st11" x="231.85" y="377.04" width="11.49" height="7.43" rx="3.36" ry="3.36"></rect><rect class="st11" x="267.79" y="377.04" width="11.49" height="7.43" rx="3.36" ry="3.36"></rect><rect class="st11" x="303.74" y="377.04" width="11.49" height="7.43" rx="3.36" ry="3.36"></rect></g></g><path class="st10" d="M316.17,267.61s28.35,23.64,28.35,75.67c0,19.69-7.41,33.58-7.41,33.58,0,0-49.4,26.37-135.47,26.37s-135.21-26.19-135.21-26.19c0,0-7.66-17.76-7.66-33.76,0-52.03,28.35-75.67,28.35-75.67,0,0,41.79,16.6,114.52,16.6s114.52-16.6,114.52-16.6Z"></path></g><g><g><path class="st5" d="M325.62,444.26l32.88-59.79c2.52-4.58,1.88-10.25-1.58-14.18-6.4-7.26-13.15-13.89-21.03-19.87-3.37-2.55-8.25-.64-9.01,3.51l-13.77,75.14c-1.15,6.25,1.31,12.62,6.36,16.47h0c2.01,1.54,4.92.92,6.14-1.3Z"></path><path class="st6" d="M320.38,417.57c-1.15,6.25-5.23,18.33,2.32,24.36h0"></path><path class="st6" d="M352.68,383.96c2.04-3.71,1.52-8.29-1.27-11.47-5.18-5.88-10.64-11.24-17.01-16.07"></path></g><g><path class="st5" d="M77.68,444.26l-32.88-59.79c-2.52-4.58-1.88-10.25,1.58-14.18,6.4-7.26,13.15-13.89,21.03-19.87,3.37-2.55,8.25-.64,9.01,3.51l13.77,75.14c1.15,6.25-1.31,12.62-6.36,16.47h0c-2.01,1.54-4.92.92-6.14-1.3Z"></path><path class="st6" d="M82.91,417.57c1.15,6.25,5.23,18.33-2.32,24.36h0"></path><path class="st6" d="M50.61,383.96c-2.04-3.71-1.52-8.29,1.27-11.47,5.18-5.88,10.64-11.24,17.01-16.07"></path></g></g></g><path class="st1" d="M197,410.6c2.92,1.11,5.99,2.81,8,5.24,1.06,1.28,2.63,4.17.57,5.32-1.19.66-2.78.4-4.18-.03-.29-.09-.51.27-.31.49.34.37.65.75.89,1.03,1.5,1.68,2.72,3.65,3.36,5.82.47,1.6.73,3.44.32,5.09-.54,2.16-2.51,3.04-4.6,2.35-1.47-.49-3-1.48-4.22-2.54"></path></svg>