<svg id="Layer_1" xmlns="http://www.w3.org/2000/svg" xmlns:xlink="http://www.w3.org/1999/xlink" version="1.1" viewBox="0 0 815.9 468.02"><defs><style>
      .st0, .st1, .st2, .st3 {
        fill: none;
      }
      .st4, .st5 {
        fill: #2b2b2b;
      }
      .st6 {
        fill: #93d9f8;
        stroke: #e2b33b;
        stroke-width: .25px;
      }
      .st6, .st7, .st8, .st9, .st5, .st10, .st11, .st12, .st13, .st14, .st1, .st2, .st3, .st15 {
        stroke-miterlimit: 10;
      }
      .st7 {
        stroke-width: 5.47px;
      }
      .st7, .st8 {
        fill: #79c258;
        stroke: #66a543;
      }
      .st8 {
        stroke-width: 4.84px;
      }
      .st16 {
        fill: #371b45;
      }
      .st9 {
        stroke: #fff;
        stroke-width: 1.56px;
      }
      .st9, .st17 {
        fill: #fff;
      }
      .st5 {
        stroke: #2b2b2b;
        stroke-width: 4.41px;
      }
      .st5, .st1 {
        stroke-linecap: round;
      }
      .st10 {
        fill: #24497f;
        stroke: #1e437c;
      }
      .st10, .st12, .st14, .st2, .st3, .st15 {
        stroke-width: 10px;
      }
      .st11 {
        fill: #ffd456;
        stroke: #e2b137;
        stroke-width: 6.27px;
      }
      .st12 {
        fill: #9f999a;
        stroke: #7c7a79;
      }
      .st13 {
        fill: #60ad54;
        stroke: #529643;
        stroke-width: 7px;
      }
      .st14 {
        fill: #5a73b8;
      }
      .st14, .st15 {
        stroke: #3e5da3;
      }
      .st1 {
        stroke: #d9f1fb;
        stroke-width: 20px;
      }
      .st2 {
        stroke: #4e6284;
      }
      .st3 {
        stroke: #34549b;
      }
      .st15 {
        fill: #4162ad;
      }
      .st18 {
        clip-path: url(#clippath);
      }
    </style><clipPath id="clippath"><path class="st0" d="M623.85,217.6c0-113.98-93.26-207.24-207.24-207.24h-17.31c-113.98,0-207.24,93.26-207.24,207.24v47.96h0c0,24.31,96.66,44.02,215.89,44.02s215.89-19.71,215.89-44.02c0,0,0,0,0,0v-47.96Z"></path></clipPath></defs><g><ellipse class="st12" cx="407.95" cy="432.86" rx="49.49" ry="19.93"></ellipse><g><ellipse class="st12" cx="284.11" cy="424.55" rx="19.93" ry="49.49" transform="translate(-184.19 628.67) rotate(-79.76)"></ellipse><ellipse class="st12" cx="531.8" cy="424.55" rx="49.49" ry="19.93" transform="translate(-67 101.29) rotate(-10.24)"></ellipse></g><path class="st15" d="M407.95,254.19c-133.47,0-241.67,27.07-241.67,74.42,0,85.81,108.2,97.06,241.67,97.06s241.67-11.25,241.67-97.06c0-47.35-108.2-74.42-241.67-74.42Z"></path><path class="st10" d="M800.95,319.07c0,45.67-178.48,82.69-393,82.69S14.95,364.74,14.95,319.07c0-83.85,178.48-82.69,393-82.69s393-1.16,393,82.69Z"></path><ellipse class="st14" cx="407.95" cy="301.67" rx="393" ry="80.13"></ellipse><g><g><path class="st2" d="M151.04,364.08s23.49-62.56,82.03-76.64"></path><path class="st2" d="M664.86,364.08s-23.49-62.56-82.03-76.64"></path></g><ellipse class="st3" cx="407.95" cy="301.67" rx="393" ry="80.13"></ellipse></g></g><g><ellipse class="st11" cx="407.95" cy="347.73" rx="22.85" ry="13.79"></ellipse><g><g><ellipse class="st11" cx="261.34" cy="335.93" rx="13.81" ry="22.83" transform="translate(-98.27 563.6) rotate(-84.46)"></ellipse><ellipse class="st11" cx="101.41" cy="309.58" rx="13.83" ry="22.78" transform="translate(-220.73 358.01) rotate(-80.41)"></ellipse></g><g><ellipse class="st11" cx="554.56" cy="335.93" rx="22.83" ry="13.81" transform="translate(-29.86 55.15) rotate(-5.54)"></ellipse><ellipse class="st11" cx="714.49" cy="309.58" rx="22.78" ry="13.83" transform="translate(-41.58 123.32) rotate(-9.59)"></ellipse></g></g></g><ellipse class="st17" cx="407.95" cy="269.76" rx="223.64" ry="47.31"></ellipse><ellipse class="st16" cx="407.95" cy="265.56" rx="215.89" ry="44.02"></ellipse><path class="st6" d="M192.06,265.56v-47.96c0-113.98,93.26-207.24,207.24-207.24h17.31c113.98,0,207.24,93.26,207.24,207.24v47.96c-150.11-25.71-293.78-24.65-431.79,0Z"></path><g class="st18"><g><g><path class="st13" d="M464.31,297.15s50.24,8.54,73.69-70.31c7.61-25.58-42.27-14.6-53.93,13.49-8.02,19.32-31.26,7.89-31.26,7.89"></path><path class="st13" d="M351.59,297.15s-50.24,8.54-73.69-70.31c-7.61-25.58,42.27-14.6,53.93,13.49,8.02,19.32,31.26,7.89,31.26,7.89"></path></g><g><rect class="st7" x="355.01" y="336.17" width="45.28" height="65.59" rx="19.62" ry="19.62"></rect><rect class="st7" x="415.62" y="336.17" width="45.28" height="65.59" rx="19.62" ry="19.62"></rect></g><path class="st8" d="M407.95,372.67c-46.76,0-74.54-6.99-67.89-67.08,6.6-59.72,27.79-90.02,67.89-90.02s61.29,30.3,67.89,90.02c6.64,60.09-21.14,67.08-67.89,67.08Z"></path><path class="st13" d="M407.95,226.02c-53.02,0-84.53,6.99-76.99,67.08,7.49,59.72,31.51,90.02,76.99,90.02s69.51-30.3,76.99-90.02c7.54-60.09-23.97-67.08-76.99-67.08Z"></path><g><path class="st13" d="M407.95,258.74s-77.19.62-99.33-79.13c0,0-15.47-50.59,22.09-81.6,12.05-9.95,29.41-17.12,44.62-21.96,10.62-3.38,21.62-5.06,32.61-5.06,11,0,22,1.69,32.61,5.06,15.21,4.84,32.57,12.01,44.62,21.96,37.55,31.01,22.09,81.6,22.09,81.6-22.13,79.75-99.33,79.13-99.33,79.13"></path><g><path class="st5" d="M396.24,181.84c.02,3.79-.49,7.46-1.47,10.94-.85,3.03-3,5.52-5.84,6.86-5.1,2.4-10.8,3.74-16.81,3.74-21.82,0-39.51-17.69-39.51-39.51,0-3.75.52-7.38,1.5-10.82.84-2.94,2.92-5.39,5.68-6.7,5.21-2.48,11.05-3.85,17.21-3.81,21.53.14,39.12,17.76,39.24,39.3Z"></path><path class="st5" d="M419.66,181.84c-.02,3.79.49,7.46,1.47,10.94.85,3.03,3,5.52,5.84,6.86,5.1,2.4,10.8,3.74,16.81,3.74,21.82,0,39.51-17.69,39.51-39.51,0-3.75-.52-7.38-1.5-10.82-.84-2.94-2.92-5.39-5.68-6.7-5.21-2.48-11.05-3.85-17.21-3.81-21.53.14-39.12,17.76-39.24,39.3Z"></path></g><ellipse class="st9" cx="374.39" cy="171.43" rx="14.3" ry="16.13" transform="translate(-36.77 193.93) rotate(-27.73)"></ellipse><ellipse class="st9" cx="438.78" cy="182.19" rx="16.13" ry="14.3" transform="translate(73.33 485.78) rotate(-62.27)"></ellipse></g><path class="st4" d="M407.95,214.79c6.59,0,14.32,6.06,14.32,9.94s-7.73,9.94-14.32,9.94-14.32-6.06-14.32-9.94,7.73-9.94,14.32-9.94Z"></path></g></g><path class="st1" d="M239.18,140.85s28.6-68.67,86.19-86.39"></path></svg>