<svg xmlns="http://www.w3.org/2000/svg" xmlns:xlink="http://www.w3.org/1999/xlink" version="1.1" viewBox="0 0 554.54 212.61"><defs><style>
      .st0 {
        fill: none;
        stroke: #fff;
        stroke-miterlimit: 10;
        stroke-width: 8.67px;
      }
      .st1, .st2, .st3, .st4 {
        mix-blend-mode: multiply;
      }
      .st1, .st4 {
        opacity: .3;
      }
      .st5 {
        isolation: isolate;
      }
      .st6, .st2 {
        fill: #683e1c;
      }
      .st2 {
        opacity: .1;
      }
      .st3, .st4, .st7, .st8 {
        fill: #9b5a27;
      }
      .st3, .st8 {
        opacity: .5;
      }
      .st8 {
        mix-blend-mode: screen;
      }
      .st9 {
        clip-path: url(#clippath);
      }
    </style><clipPath id="clippath"><rect class="st0" x="19.84" y="16.31" width="514.86" height="180" rx="35.48" ry="35.48"></rect></clipPath></defs><g class="st5"><g id="Layer_1"><g><g class="st9"><g><g><path class="st7" d="M637.66,81.86v95.84c0,4.94-2.59,9.28-6.48,11.66-1.15.7-2.4,1.22-3.73,1.56-1,.24-2.07.38-3.16.38H-70.17c-7.39,0-13.38-6.09-13.38-13.59v-95.84c0-5.61.52-11.11,1.52-16.43.21-1.04.42-2.07.65-3.1.84-3.72,1.91-7.34,3.21-10.85.36-.99.75-1.97,1.15-2.94v-.02c.32-.79.66-1.57,1-2.35,3.06-6.88,6.97-13.29,11.62-19.07.63-.81,1.28-1.6,1.96-2.38.37-.44.76-.88,1.15-1.33.71-.79,1.43-1.59,2.17-2.35.06-.06.13-.14.19-.2,1.44-1.49,2.95-2.93,4.5-4.32C-40.66,4.28-22.97-3.56-3.4-4.72c32.13-1.91,66.42-5.98,87.35-14.52,2.5-1.02,4.78-2.09,6.87-3.25.94-.5,1.83-1.04,2.69-1.59,38.66-24.73,104.7-54.72,165.89-55.67.65-.02,1.28-.02,1.93-.02h31.47c.65,0,1.28,0,1.93.02,22.17.34,44.96,4.5,66.89,10.85,14.31,4.15,28.23,9.21,41.35,14.74.02,0,.02.02.03.02,7.57,3.22,14.89,6.56,21.84,10.01,0,0,0,.02.02,0,13.45,6.62,25.55,13.53,35.76,20.06,18.58,11.9,59.24,17.13,96.89,19.36,8.67.52,16.95,2.33,24.69,5.26,2.51.95,4.97,2.01,7.34,3.19,6.92,3.4,13.3,7.72,18.99,12.8,1.56,1.39,3.06,2.82,4.5,4.32.81.82,1.59,1.68,2.37,2.55,1.09,1.21,2.12,2.44,3.11,3.71,4.67,5.78,8.56,12.19,11.62,19.07.21.47.42.96.62,1.45.44,1.01.84,2.03,1.23,3.05,3.68,9.7,5.69,20.21,5.69,31.18Z"></path><g class="st1"><path class="st7" d="M319.15,5.43c-30.02,0-61.54-2.16-96.05-5.42-13.49-1.27-32.03-4.56-37.22-18.4-2.69-7.18-.7-16.06,5.2-23.17,5.4-6.51,13.13-10.89,19.98-14.32,29.06-14.55,61.77-21.99,94.73-21.53l-.05,3.05c-32.33-.46-64.58,6.86-93.16,21.17-6.55,3.28-13.92,7.45-18.95,13.5-5.23,6.3-7.03,14.07-4.7,20.27,4.57,12.2,21.87,15.19,34.48,16.38,65.68,6.19,120.5,8.43,174.55-.76,13.35-2.27,29.74-7.63,32.03-20.31,1.51-8.36-4.43-16.38-10.99-20.62-7.49-4.84-16.65-6.67-25.4-8.12-52.07-8.67-97.14-5.16-133.98,10.44-3.87,1.64-8.42,4.02-9.17,7.87-.34,1.72.05,3.27,1.18,4.74,2.87,3.73,9.64,5.8,14.56,6.43,29.42,3.78,59.15,3.13,88.36-1.94,5.06-.88,7.77-2.42,8.29-4.7.85-3.7-4.76-6.38-8.74-7.28-20.11-4.56-41.45-2.4-60.08,6.06l-1.41-2.75c19.3-8.77,41.4-11,62.24-6.28,6.46,1.46,12.41,5.4,11.15,10.89-1.23,5.38-8.49,6.64-10.87,7.05-29.55,5.13-59.62,5.79-89.39,1.96-5.82-.75-13.28-3.15-16.75-7.66-1.65-2.15-2.24-4.53-1.74-7.08,1.02-5.25,6.43-8.16,11.03-10.1,37.44-15.85,83.16-19.44,135.88-10.66,8.7,1.45,18.65,3.43,26.67,8.61,7.41,4.79,14.1,13.96,12.35,23.65-2.61,14.42-20.28,20.35-34.65,22.79-25.95,4.41-52.05,6.21-79.39,6.21Z"></path><g><path class="st7" d="M-75.78,51.67c-.81-.05-1.6-.11-2.4-.18.36-.99.75-1.97,1.15-2.94.47.03.96.06,1.43.09,28.23,1.5,56.79,1.05,84.94-1.33,4.88-.41,7.6-1.62,8.31-3.68.32-.98.21-1.88-.37-2.78-1.59-2.41-5.88-4.03-9.2-4.5-19.15-2.75-39.08-1.46-57.65,3.71l-.92-2.93c19.02-5.29,39.45-6.61,59.06-3.8,3.87.56,9.19,2.44,11.47,5.92,1.09,1.66,1.33,3.49.7,5.32-1.72,4.97-8.78,5.57-11.1,5.77-28.31,2.4-57.03,2.84-85.41,1.33Z"></path><path class="st7" d="M66.21,59.07c-24.35,13.7-52.4,20.9-80.64,20.9-6.47,0-12.95-.37-19.38-1.13-16.77-1.98-33.07-6.56-48.22-13.41.21-1.04.42-2.07.65-3.1,15.04,6.9,31.27,11.5,47.98,13.47,33.86,4.01,68.65-2.87,97.95-19.36,4.37-2.46,18.39-11.32,14.96-21.8-2.11-6.44-10.01-10.25-23.48-11.32-32.94-2.62-65.77-1.75-96.55-.66-7.63.27-15.07.7-21.91,2.06.37-.44.76-.88,1.15-1.33.71-.79,1.43-1.59,2.17-2.35,5.9-.89,12.12-1.21,18.46-1.43,30.9-1.11,63.84-1.97,96.96.67,14.91,1.19,23.75,5.71,26.3,13.46,4.13,12.6-11.5,22.58-16.38,25.32Z"></path></g><rect class="st7" x="24.29" y="4.03" width="3.05" height="195.25" transform="translate(-75.88 127.29) rotate(-89.9)"></rect><path class="st7" d="M132.94,83.38c-28.09,0-56.15-.45-84.06-1.35l.11-3.05c70.42,2.27,141.8,1.67,212.17-1.79l.17,3.05c-42.57,2.09-85.51,3.14-128.38,3.14Z"></path><path class="st7" d="M170.92,64.38c-29.05-3.65-58.63-5.27-87.95-4.8l-.05-3.05c29.47-.46,59.22,1.16,88.43,4.83l-.43,3.02Z"></path><path class="st7" d="M589.53,3.73l-152.58-2.67.07-3.05,145.18,2.53c2.51.95,4.97,2.01,7.34,3.19Z"></path><polygon class="st7" points="463.64 57.72 257.09 54.39 257.14 51.34 463.7 54.67 463.64 57.72"></polygon><polygon class="st7" points="359.22 76.61 359.09 73.56 574.7 65.41 574.83 68.46 359.22 76.61"></polygon><path class="st7" d="M631.97,50.68c-34.76-.27-69.58.79-104.07,3.2l-.24-3.04c34.17-2.4,68.65-3.46,103.08-3.22.44,1.01.84,2.03,1.23,3.05Z"></path><path class="st7" d="M637.66,91.74v3.05c-66.29,1.39-132.91,2.07-199.36,2.07-40.52,0-80.98-.24-121.26-.76l.03-3.05c106.32,1.36,213.9.92,320.59-1.31Z"></path><g><path class="st7" d="M534.22,191.01c-.07.09-.15.18-.21.27h-4.2c.63-.64,1.22-1.31,1.75-2.03,3.37-4.53,3.84-11.96-.88-15.35-4.91-3.54-12.17-1.36-18.62,1.24-7.23,2.93-15.44,6.22-20.72,12.23-1.02,1.17-1.93,2.49-2.64,3.91h-3.53c.91-2.15,2.17-4.15,3.68-5.86,5.78-6.56,14.37-10.02,21.95-13.07,6.89-2.78,15.59-5.39,21.86-.87,6.25,4.5,5.85,13.73,1.56,19.53Z"></path><path class="st7" d="M577.01,179.84c.36,4.29-.97,8.12-3.11,11.44h-3.94c2.46-3.19,4.16-6.99,3.82-11.2-.44-5.17-4.07-10.25-9.72-13.58-5.59-3.3-12.17-4.56-17.87-5.35-29.54-4.15-58.23,2.09-78.75,17.13-5.72,4.2-9.95,8.48-12.83,13h-3.73c3.08-5.43,7.87-10.5,14.57-15.41,21.21-15.55,50.81-22.01,81.23-17.74,5.67.79,12.98,2.18,19.1,5.78,6.53,3.84,10.73,9.79,11.23,15.93Z"></path><path class="st7" d="M631.17,189.35c-1.15.7-2.4,1.22-3.73,1.56,2.58-8.09.34-17.92-6.06-25.84-5.65-7-14.11-12.68-26.61-17.85-33.98-14.07-73.61-15.59-108.69-4.18-27.85,9.06-52.61,26.18-70.4,48.25h-4.03c18.26-23.45,44.15-41.63,73.37-51.14,35.86-11.66,76.35-10.1,111.07,4.27,13.01,5.39,21.87,11.37,27.87,18.79,6.38,7.9,8.98,17.65,7.21,26.13Z"></path></g><rect class="st7" x="40.49" y="44.98" width="3.05" height="206.59" transform="translate(-106.35 189.98) rotate(-89.88)"></rect><path class="st7" d="M113.86,164.62c-22.51,0-44.97-.28-67.37-.85l.09-3.05c86.32,2.19,173.74.15,259.85-6.08l.25,3.04c-63.87,4.62-128.47,6.94-192.81,6.94Z"></path><polygon class="st7" points="187.54 151.68 187.43 148.64 381.07 142.43 381.18 145.48 187.54 151.68"></polygon><path class="st7" d="M252.73,181.92c-27.46,0-54.91-1.2-82.25-3.59l.3-3.04c69.39,6.08,139.56,4.4,208.54-4.97l.46,3.02c-42.06,5.72-84.55,8.58-127.05,8.58Z"></path><path class="st7" d="M-44.97,172.78l-.36-3.03c38.23-3.99,77.02-4.3,115.31-.91l-.3,3.04c-38.07-3.37-76.64-3.06-114.65.91Z"></path></g><g><path class="st8" d="M618.5,27.11h-204.24l-9.82,9.43-5.25,5.74c.18-.46,3.29-7.75,5.12-12.19.39-.95.86-1.97,1.38-2.97H-64.4c.99-1.27,2.03-2.5,3.11-3.71.78-.87,1.56-1.72,2.37-2.55h468.04c.53-.9.88-1.45.88-1.45,0,0,11.07-.26,11.88,0,.23.08-.21.66-.96,1.45h192.12c.81.82,1.59,1.68,2.37,2.55,1.09,1.21,2.12,2.44,3.11,3.71Z"></path><path class="st8" d="M637.66,122.38v6.25H-83.55v-6.25H113.39c5.17-3.43,12.27-8.04,15.31-9.53,5.07-2.49,18.91-8.33,18.91-8.33l-10,10.25-11.02,7.61h511.06Z"></path></g><g><path class="st6" d="M637.66,118.64v6.87H-83.55v-6.87h211.8c2.48-1.57,5.67-2.82,7.62-4.01,4.78-2.96,9.36-6.18,13.74-9.61-3.71,2.91-4.75,9.15-9.41,12.45-.55.4-1.15.79-1.8,1.17h499.26Z"></path><path class="st6" d="M615.39,23.4h-189.53c-2.48,1.59-5.67,2.82-7.62,4.03-4.78,2.96-9.38,6.18-13.76,9.61,3.73-2.91,4.76-9.17,9.43-12.45.55-.4,1.15-.79,1.8-1.19H-61.29c2.15-2.43,4.46-4.71,6.87-6.86h662.94c2.41,2.15,4.71,4.44,6.87,6.86Z"></path></g><path class="st3" d="M630.12,46.18c-.41-.17-.81-.37-1.2-.58-12.33-6.77-26.49-10.98-41.66-11.81-41.66-2.29-86.62-7.67-107.18-19.89-43.46-25.83-118.15-57.24-186.69-57.24h-32.67c-68.54,0-143.23,31.41-186.69,57.24C53.48,26.11,8.51,31.5-33.15,33.79c-15.17.82-29.33,5.03-41.67,11.81-.39.21-.79.41-1.2.58,3.73-8.39,8.72-16.06,14.73-22.78,2.15-2.43,4.46-4.71,6.87-6.86C-40.66,4.28-22.97-3.56-3.4-4.72c37.67-2.23,78.33-7.46,96.91-19.36,38.66-24.73,104.7-54.72,165.89-55.67.65-.02,1.28-.02,1.93-.02h31.47c.65,0,1.28,0,1.93.02,61.17.95,127.21,30.94,165.89,55.67,18.58,11.9,59.24,17.13,96.89,19.36,19.59,1.16,37.27,9,51.02,21.25,2.41,2.15,4.71,4.44,6.87,6.86,6.03,6.71,11,14.39,14.73,22.78Z"></path><path class="st4" d="M637.66,81.86v95.84c0,7.51-5.98,13.59-13.37,13.59h-337.77c38.53-31.55,83.2-57.41,124.54-86.13,17.77-12.37,35.94-26.5,42.95-46.24,8.88-24.99-2.95-53.2-22.36-72.16-14.34-13.85-31.82-23.48-49.87-32.37-10.6-5.22-15.72-13.75-20.17-23.28,38.56,11.15,74.34,29.05,99,44.82,18.58,11.9,59.24,17.13,96.89,19.36,19.59,1.16,37.27,9,51.02,21.25,2.41,2.15,4.71,4.44,6.87,6.86,6.03,6.71,11,14.39,14.73,22.78,4.84,10.91,7.53,22.99,7.53,35.68Z"></path></g><path class="st7" d="M-83.55,87.11v43.65c0,5.61.52,11.11,1.52,16.43.21,1.04.42,2.07.65,3.1.84,3.72,1.91,7.34,3.21,10.85.36.99.75,1.97,1.15,2.94v.02c.32.79.66,1.57,1,2.35,3.06,6.88,6.97,13.29,11.62,19.07.63.81,1.28,1.6,1.96,2.38.37.44.76.88,1.15,1.33.71.79,1.43,1.59,2.17,2.35.06.06.13.14.19.2,1.44,1.49,2.95,2.93,4.5,4.32,13.76,12.25,31.45,20.09,51.02,21.25,32.13,1.91,66.42,5.98,87.35,14.52,2.5,1.02,4.78,2.09,6.87,3.25.94.5,1.83,1.04,2.69,1.59,38.66,24.73,104.7,54.72,165.89,55.67.65.02,1.28.02,1.93.02h31.47c.65,0,1.28,0,1.93-.02,22.17-.34,44.96-4.5,66.89-10.85,14.31-4.15,28.23-9.21,41.35-14.74.02,0,.02-.02.03-.02,7.57-3.22,14.89-6.56,21.84-10.01,0,0,0-.02.02,0,13.45-6.62,25.55-13.53,35.76-20.06,18.58-11.9,59.24-17.13,96.89-19.36,8.67-.52,16.95-2.33,24.69-5.26,2.51-.95,4.97-2.01,7.34-3.19,6.92-3.4,13.3-7.72,18.99-12.8,1.56-1.39,3.06-2.82,4.5-4.32.81-.82,1.59-1.68,2.37-2.55,1.09-1.21,2.12-2.44,3.11-3.71,4.67-5.78,8.56-12.19,11.62-19.07.21-.47.42-.96.62-1.45.44-1.01.84-2.03,1.23-3.05,3.68-9.7,5.69-20.21,5.69-31.18v-43.65"></path><g class="st1"><path class="st7" d="M319.15,207.18c-30.02,0-61.54,2.16-96.05,5.42-13.49,1.27-32.03,4.56-37.22,18.4-2.69,7.18-.7,16.06,5.2,23.17,5.4,6.51,13.13,10.89,19.98,14.32,29.06,14.55,61.77,21.99,94.73,21.53l-.05-3.05c-32.33.46-64.58-6.86-93.16-21.17-6.55-3.28-13.92-7.45-18.95-13.5-5.23-6.3-7.03-14.07-4.7-20.27,4.57-12.2,21.87-15.19,34.48-16.38,65.68-6.19,120.5-8.43,174.55.76,13.35,2.27,29.74,7.63,32.03,20.31,1.51,8.36-4.43,16.38-10.99,20.62-7.49,4.84-16.65,6.67-25.4,8.12-52.07,8.67-97.14,5.16-133.98-10.44-3.87-1.64-8.42-4.02-9.17-7.87-.34-1.72.05-3.27,1.18-4.74,2.87-3.73,9.64-5.8,14.56-6.43,29.42-3.78,59.15-3.13,88.36,1.94,5.06.88,7.77,2.42,8.29,4.7.85,3.7-4.76,6.38-8.74,7.28-20.11,4.56-41.45,2.4-60.08-6.06l-1.41,2.75c19.3,8.77,41.4,11,62.24,6.28,6.46-1.46,12.41-5.4,11.15-10.89-1.23-5.38-8.49-6.64-10.87-7.05-29.55-5.13-59.62-5.79-89.39-1.96-5.82.75-13.28,3.15-16.75,7.66-1.65,2.15-2.24,4.53-1.74,7.08,1.02,5.25,6.43,8.16,11.03,10.1,37.44,15.85,83.16,19.44,135.88,10.66,8.7-1.45,18.65-3.43,26.67-8.61,7.41-4.79,14.1-13.96,12.35-23.65-2.61-14.42-20.28-20.35-34.65-22.79-25.95-4.41-52.05-6.21-79.39-6.21Z"></path><g><path class="st7" d="M-75.78,160.94c-.81.05-1.6.11-2.4.18.36.99.75,1.97,1.15,2.94.47-.03.96-.06,1.43-.09,28.23-1.5,56.79-1.05,84.94,1.33,4.88.41,7.6,1.62,8.31,3.68.32.98.21,1.88-.37,2.78-1.59,2.41-5.88,4.03-9.2,4.5-19.15,2.75-39.08,1.46-57.65-3.71l-.92,2.93c19.02,5.29,39.45,6.61,59.06,3.8,3.87-.56,9.19-2.44,11.47-5.92,1.09-1.66,1.33-3.49.7-5.32-1.72-4.97-8.78-5.57-11.1-5.77-28.31-2.4-57.03-2.84-85.41-1.33Z"></path><path class="st7" d="M66.21,153.55c-24.35-13.7-52.4-20.9-80.64-20.9-6.47,0-12.95.37-19.38,1.13-16.77,1.98-33.07,6.56-48.22,13.41.21,1.04.42,2.07.65,3.1,15.04-6.9,31.27-11.5,47.98-13.47,33.86-4.01,68.65,2.87,97.95,19.36,4.37,2.46,18.39,11.32,14.96,21.8-2.11,6.44-10.01,10.25-23.48,11.32-32.94,2.62-65.77,1.75-96.55.66-7.63-.27-15.07-.7-21.91-2.06.37.44.76.88,1.15,1.33.71.79,1.43,1.59,2.17,2.35,5.9.89,12.12,1.21,18.46,1.43,30.9,1.11,63.84,1.97,96.96-.67,14.91-1.19,23.75-5.71,26.3-13.46,4.13-12.6-11.5-22.58-16.38-25.32Z"></path></g><rect class="st7" x="-71.81" y="109.44" width="195.25" height="3.05" transform="translate(-.19 .04) rotate(-.1)"></rect><path class="st7" d="M132.94,129.23c-28.09,0-56.15.45-84.06,1.35l.11,3.05c70.42-2.27,141.8-1.67,212.17,1.79l.17-3.05c-42.57-2.09-85.51-3.14-128.38-3.14Z"></path><path class="st7" d="M170.92,148.24c-29.05,3.65-58.63,5.27-87.95,4.8l-.05,3.05c29.47.46,59.22-1.16,88.43-4.83l-.43-3.02Z"></path><path class="st7" d="M589.53,208.88l-152.58,2.67.07,3.05,145.18-2.53c2.51-.95,4.97-2.01,7.34-3.19Z"></path><polygon class="st7" points="463.64 154.89 257.09 158.22 257.14 161.27 463.7 157.94 463.64 154.89"></polygon><polygon class="st7" points="359.22 136 359.09 139.05 574.7 147.2 574.83 144.15 359.22 136"></polygon><path class="st7" d="M631.97,161.94c-34.76.27-69.58-.79-104.07-3.2l-.24,3.04c34.17,2.4,68.65,3.46,103.08,3.22.44-1.01.84-2.03,1.23-3.05Z"></path><path class="st7" d="M637.66,120.87v-3.05c-66.29-1.39-132.91-2.07-199.36-2.07-40.52,0-80.98.24-121.26.76l.03,3.05c106.32-1.36,213.9-.92,320.59,1.31Z"></path></g><g><path class="st8" d="M618.5,185.51h-204.24l-9.82-9.43-5.25-5.74c.18.46,3.29,7.75,5.12,12.19.39.95.86,1.97,1.38,2.97H-64.4c.99,1.27,2.03,2.5,3.11,3.71.78.87,1.56,1.72,2.37,2.55h468.04c.53.9.88,1.45.88,1.45,0,0,11.07.26,11.88,0,.23-.08-.21-.66-.96-1.45h192.12c.81-.82,1.59-1.68,2.37-2.55,1.09-1.21,2.12-2.44,3.11-3.71Z"></path><path class="st8" d="M637.66,90.24v-6.25H-83.55v6.25H113.39c5.17,3.43,12.27,8.04,15.31,9.53,5.07,2.49,18.91,8.33,18.91,8.33l-10-10.25-11.02-7.61h511.06Z"></path></g><g><path class="st6" d="M637.66,93.97v-6.87H-83.55v6.87h211.8c2.48,1.57,5.67,2.82,7.62,4.01,4.78,2.96,9.36,6.18,13.74,9.61-3.71-2.91-4.75-9.15-9.41-12.45-.55-.4-1.15-.79-1.8-1.17h499.26Z"></path><path class="st6" d="M615.39,189.21h-189.53c-2.48-1.59-5.67-2.82-7.62-4.03-4.78-2.96-9.38-6.18-13.76-9.61,3.73,2.91,4.76,9.17,9.43,12.45.55.4,1.15.79,1.8,1.19H-61.29c2.15,2.43,4.46,4.71,6.87,6.86h662.94c2.41-2.15,4.71-4.44,6.87-6.86Z"></path></g><path class="st4" d="M286.52,21.33c38.53,31.55,83.2,57.41,124.54,86.13,17.77,12.37,35.94,26.5,42.95,46.24,8.88,24.99-2.95,53.2-22.36,72.16-14.34,13.85-31.82,23.48-49.87,32.37-10.6,5.22-15.72,13.75-20.17,23.28,38.56-11.15,74.34-29.05,99-44.82,18.58-11.9,59.24-17.13,96.89-19.36,19.59-1.16,37.27-9,51.02-21.25,2.41-2.15,4.71-4.44,6.87-6.86,6.03-6.71,11-14.39,14.73-22.78,4.84-10.91,7.53-22.99,7.53-35.68.69-46.63,3.67-84.89-24.39-107.5"></path><rect class="st2" x="19.84" y="16.31" width="514.86" height="180" rx="48.7" ry="48.7"></rect></g></g><rect class="st0" x="19.84" y="16.31" width="514.86" height="180" rx="35.48" ry="35.48"></rect></g></g></g></svg>