<svg xmlns="http://www.w3.org/2000/svg" xmlns:xlink="http://www.w3.org/1999/xlink" version="1.1" viewBox="0 0 191.9 185.22"><defs><style>
      .st0 {
        fill: none;
        stroke: #fff;
        stroke-miterlimit: 10;
        stroke-width: 5.22px;
      }
      .st1, .st2, .st3, .st4 {
        mix-blend-mode: multiply;
      }
      .st1, .st4 {
        opacity: .3;
      }
      .st5 {
        isolation: isolate;
      }
      .st6 {
        clip-path: url(#clippath-1);
      }
      .st7 {
        fill: #fff;
      }
      .st8, .st2 {
        fill: #683e1c;
      }
      .st2 {
        opacity: .1;
      }
      .st3, .st4, .st9, .st10 {
        fill: #9b5a27;
      }
      .st3, .st10 {
        opacity: .5;
      }
      .st10 {
        mix-blend-mode: screen;
      }
    </style><clipPath id="clippath-1"><rect class="st0" x="2.61" y="2.61" width="186.68" height="180" rx="21.36" ry="21.36"></rect></clipPath></defs><g class="st5"><g id="Layer_1"><g><g><g class="st6"><g><g><path class="st9" d="M456.34,68.16v95.84c0,4.94-2.59,9.28-6.48,11.66-1.15.7-2.4,1.22-3.73,1.56-1,.24-2.07.38-3.16.38H-251.49c-7.39,0-13.38-6.09-13.38-13.59v-95.84c0-5.61.52-11.11,1.52-16.43.21-1.04.42-2.07.65-3.1.84-3.72,1.91-7.34,3.21-10.85.36-.99.75-1.97,1.15-2.94v-.02c.32-.79.66-1.57,1-2.35,3.06-6.88,6.97-13.29,11.62-19.07.63-.81,1.28-1.6,1.96-2.38.37-.44.76-.88,1.15-1.33.71-.79,1.43-1.59,2.17-2.35.06-.06.13-.14.19-.2,1.44-1.49,2.95-2.93,4.5-4.32,13.76-12.25,31.45-20.09,51.02-21.25,32.13-1.91,66.42-5.98,87.35-14.52,2.5-1.02,4.78-2.09,6.87-3.25.94-.5,1.83-1.04,2.69-1.59,38.66-24.73,104.7-54.72,165.89-55.67.65-.02,1.28-.02,1.93-.02h31.47c.65,0,1.28,0,1.93.02,22.17.34,44.96,4.5,66.89,10.85,14.31,4.15,28.23,9.21,41.35,14.74.02,0,.02.02.03.02,7.57,3.22,14.89,6.56,21.84,10.01,0,0,0,.02.02,0,13.45,6.62,25.55,13.53,35.76,20.06,18.58,11.9,59.24,17.13,96.89,19.36,8.67.52,16.95,2.33,24.69,5.26,2.51.95,4.97,2.01,7.34,3.19,6.92,3.4,13.3,7.72,18.99,12.8,1.56,1.39,3.06,2.82,4.5,4.32.81.82,1.59,1.68,2.37,2.55,1.09,1.21,2.12,2.44,3.11,3.71,4.67,5.78,8.56,12.19,11.62,19.07.21.47.42.96.62,1.45.44,1.01.84,2.03,1.23,3.05,3.68,9.7,5.69,20.21,5.69,31.18Z"></path><g class="st1"><path class="st9" d="M-48.38,69.68c-28.09,0-56.15-.45-84.06-1.35l.11-3.05c70.42,2.27,141.8,1.67,212.17-1.79l.17,3.05c-42.57,2.09-85.51,3.14-128.38,3.14Z"></path><polygon class="st9" points="282.32 44.02 75.77 40.7 75.83 37.65 282.38 40.97 282.32 44.02"></polygon><polygon class="st9" points="177.91 62.91 177.78 59.86 393.38 51.71 393.51 54.76 177.91 62.91"></polygon><path class="st9" d="M456.34,78.05v3.05c-66.29,1.39-132.91,2.07-199.36,2.07-40.52,0-80.98-.24-121.26-.76l.03-3.05c106.32,1.36,213.9.92,320.59-1.31Z"></path><path class="st9" d="M-67.45,150.92c-22.51,0-44.97-.28-67.37-.85l.09-3.05c86.32,2.19,173.74.15,259.85-6.08l.25,3.04c-63.87,4.62-128.47,6.94-192.81,6.94Z"></path><polygon class="st9" points="6.22 137.99 6.11 134.94 199.76 128.73 199.87 131.78 6.22 137.99"></polygon><path class="st9" d="M71.41,168.22c-27.46,0-54.91-1.2-82.25-3.59l.3-3.04c69.39,6.08,139.56,4.4,208.54-4.97l.46,3.02c-42.06,5.72-84.55,8.58-127.05,8.58Z"></path></g><g><path class="st10" d="M437.19,13.41h-204.24l-9.82,9.43-5.25,5.74c.18-.46,3.29-7.75,5.12-12.19.39-.95.86-1.97,1.38-2.97H-245.72c.99-1.27,2.03-2.5,3.11-3.71.78-.87,1.56-1.72,2.37-2.55H227.8c.53-.9.88-1.45.88-1.45,0,0,11.07-.26,11.88,0,.23.08-.21.66-.96,1.45h192.12c.81.82,1.59,1.68,2.37,2.55,1.09,1.21,2.12,2.44,3.11,3.71Z"></path><path class="st10" d="M456.34,108.68v6.25H-264.87v-6.25H-67.92c5.17-3.43,12.27-8.04,15.31-9.53,5.07-2.49,18.91-8.33,18.91-8.33l-10,10.25-11.02,7.61h511.06Z"></path></g><g><path class="st8" d="M456.34,104.94v6.87H-264.87v-6.87H-53.07c2.48-1.57,5.67-2.82,7.62-4.01,4.78-2.96,9.36-6.18,13.74-9.61-3.71,2.91-4.75,9.15-9.41,12.45-.55.4-1.15.79-1.8,1.17h499.26Z"></path><path class="st8" d="M434.08,9.7h-189.53c-2.48,1.59-5.67,2.82-7.62,4.03-4.78,2.96-9.38,6.18-13.76,9.61,3.73-2.91,4.76-9.17,9.43-12.45.55-.4,1.15-.79,1.8-1.19H-242.61c2.15-2.43,4.46-4.71,6.87-6.86H427.21c2.41,2.15,4.71,4.44,6.87,6.86Z"></path></g><path class="st3" d="M448.8,32.48c-.41-.17-.81-.37-1.2-.58-12.33-6.77-26.49-10.98-41.66-11.81-41.66-2.29-86.62-7.67-107.18-19.89-43.46-25.83-118.15-57.24-186.69-57.24h-32.67C10.87-57.04-63.82-25.63-107.28.2c-20.56,12.22-65.52,17.6-107.18,19.89-15.17.82-29.33,5.03-41.67,11.81-.39.21-.79.41-1.2.58,3.73-8.39,8.72-16.06,14.73-22.78,2.15-2.43,4.46-4.71,6.87-6.86,13.76-12.25,31.45-20.09,51.02-21.25,37.67-2.23,78.33-7.46,96.91-19.36,38.66-24.73,104.7-54.72,165.89-55.67.65-.02,1.28-.02,1.93-.02h31.47c.65,0,1.28,0,1.93.02,61.17.95,127.21,30.94,165.89,55.67,18.58,11.9,59.24,17.13,96.89,19.36,19.59,1.16,37.27,9,51.02,21.25,2.41,2.15,4.71,4.44,6.87,6.86,6.03,6.71,11,14.39,14.73,22.78Z"></path><path class="st4" d="M456.34,68.16v95.84c0,7.51-5.98,13.59-13.37,13.59H105.2c38.53-31.55,83.2-57.41,124.54-86.13,17.77-12.37,35.94-26.5,42.95-46.24,8.88-24.99-2.95-53.2-22.36-72.16-14.34-13.85-31.82-23.48-49.87-32.37-10.6-5.22-15.72-13.75-20.17-23.28,38.56,11.15,74.34,29.05,99,44.82,18.58,11.9,59.24,17.13,96.89,19.36,19.59,1.16,37.27,9,51.02,21.25,2.41,2.15,4.71,4.44,6.87,6.86,6.03,6.71,11,14.39,14.73,22.78,4.84,10.91,7.53,22.99,7.53,35.68Z"></path></g><path class="st9" d="M-264.87,73.41v43.65c0,5.61.52,11.11,1.52,16.43.21,1.04.42,2.07.65,3.1.84,3.72,1.91,7.34,3.21,10.85.36.99.75,1.97,1.15,2.94v.02c.32.79.66,1.57,1,2.35,3.06,6.88,6.97,13.29,11.62,19.07.63.81,1.28,1.6,1.96,2.38.37.44.76.88,1.15,1.33.71.79,1.43,1.59,2.17,2.35.06.06.13.14.19.2,1.44,1.49,2.95,2.93,4.5,4.32,13.76,12.25,31.45,20.09,51.02,21.25,32.13,1.91,66.42,5.98,87.35,14.52,2.5,1.02,4.78,2.09,6.87,3.25.94.5,1.83,1.04,2.69,1.59,38.66,24.73,104.7,54.72,165.89,55.67.65.02,1.28.02,1.93.02h31.47c.65,0,1.28,0,1.93-.02,22.17-.34,44.96-4.5,66.89-10.85,14.31-4.15,28.23-9.21,41.35-14.74.02,0,.02-.02.03-.02,7.57-3.22,14.89-6.56,21.84-10.01,0,0,0-.02.02,0,13.45-6.62,25.55-13.53,35.76-20.06,18.58-11.9,59.24-17.13,96.89-19.36,8.67-.52,16.95-2.33,24.69-5.26,2.51-.95,4.97-2.01,7.34-3.19,6.92-3.4,13.3-7.72,18.99-12.8,1.56-1.39,3.06-2.82,4.5-4.32.81-.82,1.59-1.68,2.37-2.55,1.09-1.21,2.12-2.44,3.11-3.71,4.67-5.78,8.56-12.19,11.62-19.07.21-.47.42-.96.62-1.45.44-1.01.84-2.03,1.23-3.05,3.68-9.7,5.69-20.21,5.69-31.18v-43.65"></path><g class="st1"><path class="st9" d="M-48.38,115.54c-28.09,0-56.15.45-84.06,1.35l.11,3.05c70.42-2.27,141.8-1.67,212.17,1.79l.17-3.05c-42.57-2.09-85.51-3.14-128.38-3.14Z"></path><polygon class="st9" points="282.32 141.2 75.77 144.52 75.83 147.57 282.38 144.25 282.32 141.2"></polygon><polygon class="st9" points="177.91 122.31 177.78 125.35 393.38 133.5 393.51 130.46 177.91 122.31"></polygon><path class="st9" d="M456.34,107.17v-3.05c-66.29-1.39-132.91-2.07-199.36-2.07-40.52,0-80.98.24-121.26.76l.03,3.05c106.32-1.36,213.9-.92,320.59,1.31Z"></path></g><g><path class="st10" d="M437.19,171.81h-204.24l-9.82-9.43-5.25-5.74c.18.46,3.29,7.75,5.12,12.19.39.95.86,1.97,1.38,2.97H-245.72c.99,1.27,2.03,2.5,3.11,3.71.78.87,1.56,1.72,2.37,2.55H227.8c.53.9.88,1.45.88,1.45,0,0,11.07.26,11.88,0,.23-.08-.21-.66-.96-1.45h192.12c.81-.82,1.59-1.68,2.37-2.55,1.09-1.21,2.12-2.44,3.11-3.71Z"></path><path class="st10" d="M456.34,76.54v-6.25H-264.87v6.25H-67.92c5.17,3.43,12.27,8.04,15.31,9.53,5.07,2.49,18.91,8.33,18.91,8.33l-10-10.25-11.02-7.61h511.06Z"></path></g><g><path class="st8" d="M456.34,80.28v-6.87H-264.87v6.87H-53.07c2.48,1.57,5.67,2.82,7.62,4.01,4.78,2.96,9.36,6.18,13.74,9.61-3.71-2.91-4.75-9.15-9.41-12.45-.55-.4-1.15-.79-1.8-1.17h499.26Z"></path><path class="st8" d="M434.08,175.52h-189.53c-2.48-1.59-5.67-2.82-7.62-4.03-4.78-2.96-9.38-6.18-13.76-9.61,3.73,2.91,4.76,9.17,9.43,12.45.55.4,1.15.79,1.8,1.19H-242.61c2.15,2.43,4.46,4.71,6.87,6.86H427.21c2.41-2.15,4.71-4.44,6.87-6.86Z"></path></g><path class="st4" d="M105.2,7.63c38.53,31.55,83.2,57.41,124.54,86.13,17.77,12.37,35.94,26.5,42.95,46.24,8.88,24.99-2.95,53.2-22.36,72.16-14.34,13.85-31.82,23.48-49.87,32.37-10.6,5.22-15.72,13.75-20.17,23.28,38.56-11.15,74.34-29.05,99-44.82,18.58-11.9,59.24-17.13,96.89-19.36,19.59-1.16,37.27-9,51.02-21.25,2.41-2.15,4.71-4.44,6.87-6.86,6.03-6.71,11-14.39,14.73-22.78,4.84-10.91,7.53-22.99,7.53-35.68.69-46.63,3.67-84.89-24.39-107.5"></path><rect class="st2" x="-161.48" y="2.61" width="514.86" height="180" rx="48.7" ry="48.7"></rect></g></g><rect class="st0" x="2.61" y="2.61" width="186.68" height="180" rx="21.36" ry="21.36"></rect></g><g><path class="st7" d="M87.25,132.09c-.2,3.36-1.11,6.2-2.74,8.52-1.63,2.32-3.68,4.12-6.15,5.41-2.47,1.28-5.16,1.97-8.07,2.07-2.91.1-5.7-.35-8.37-1.33-2.67-.99-4.99-2.54-6.96-4.67-1.98-2.12-3.26-4.86-3.85-8.22-.99-5.04-1.53-10.12-1.63-15.26-.1-5.13-.15-10.27-.15-15.41.1-7.7.35-15.33.74-22.89.39-7.55,1.13-15.13,2.22-22.74.3-2.27.76-4.49,1.41-6.67.64-2.17,1.5-4.25,2.59-6.22,1.48-2.47,3.46-4.37,5.92-5.7,2.47-1.33,5.08-2.12,7.85-2.37,2.76-.25,5.53.05,8.3.89,2.76.84,5.18,2.2,7.26,4.07,1.19,1.09,2.07,2.4,2.67,3.92.59,1.53.99,3.04,1.19,4.52.59,3.46.79,6.96.59,10.52-.2,3.56-.4,7.11-.59,10.67-.3,5.33-.52,10.52-.67,15.55-.15,5.04-.3,10.02-.44,14.96-.15,4.94-.3,9.9-.44,14.89-.15,4.99-.37,10.15-.67,15.48Z"></path><path class="st7" d="M139.69,132.09c-.2,3.36-1.11,6.2-2.74,8.52-1.63,2.32-3.68,4.12-6.15,5.41-2.47,1.28-5.16,1.97-8.07,2.07-2.91.1-5.7-.35-8.37-1.33-2.67-.99-4.99-2.54-6.96-4.67-1.98-2.12-3.26-4.86-3.85-8.22-.99-5.04-1.53-10.12-1.63-15.26-.1-5.13-.15-10.27-.15-15.41.1-7.7.35-15.33.74-22.89.39-7.55,1.13-15.13,2.22-22.74.3-2.27.76-4.49,1.41-6.67.64-2.17,1.5-4.25,2.59-6.22,1.48-2.47,3.46-4.37,5.92-5.7,2.47-1.33,5.08-2.12,7.85-2.37,2.76-.25,5.53.05,8.3.89,2.76.84,5.18,2.2,7.26,4.07,1.19,1.09,2.07,2.4,2.67,3.92.59,1.53.99,3.04,1.19,4.52.59,3.46.79,6.96.59,10.52-.2,3.56-.4,7.11-.59,10.67-.3,5.33-.52,10.52-.67,15.55-.15,5.04-.3,10.02-.44,14.96-.15,4.94-.3,9.9-.44,14.89-.15,4.99-.37,10.15-.67,15.48Z"></path></g></g></g></g></svg>