<svg id="Layer_1" xmlns="http://www.w3.org/2000/svg" version="1.1" viewBox="0 0 282.03 443.21"><defs><style>
      .st0, .st1 {
        fill: #2b2b2b;
      }
      .st2 {
        fill: #fff;
        stroke: #fff;
        stroke-width: 2px;
      }
      .st2, .st1, .st3 {
        stroke-miterlimit: 10;
      }
      .st1 {
        stroke: #2b2b2b;
        stroke-linecap: round;
        stroke-width: 5.64px;
      }
      .st3 {
        fill: #60ad54;
        stroke: #529643;
        stroke-width: 7px;
      }
    </style></defs><g><path class="st3" d="M54.62,209.96s-61.95,20.23-41.57,123.43c6.61,33.48,47.5-6.13,43.98-44.86-2.42-26.64,39.72-30.03,39.72-30.03"></path><path class="st3" d="M227.41,209.96s61.95,20.23,41.57,123.43c-6.61,33.48-47.5-6.13-43.98-44.86,2.42-26.64-39.72-30.03-39.72-30.03"></path></g><g><rect class="st3" x="73.31" y="349.22" width="57.9" height="83.87" rx="25.09" ry="25.09"></rect><rect class="st3" x="150.81" y="349.22" width="57.9" height="83.87" rx="25.09" ry="25.09"></rect></g><path class="st3" d="M141.01,395.9c-59.79,0-95.32-8.94-86.82-85.79,8.44-76.36,35.53-115.11,86.82-115.11s78.38,38.75,86.82,115.11c8.5,76.85-27.03,85.79-86.82,85.79Z"></path><path class="st3" d="M141.01,199.98c-67.8,0-108.09,8.94-98.46,85.79s40.29,115.11,98.46,115.11,88.88-38.75,98.46-115.11c9.64-76.85-30.65-85.79-98.46-85.79Z"></path><g><path class="st3" d="M141.01,250.21s-98.71.79-127.02-101.19c0,0-19.78-64.69,28.25-104.35,15.41-12.72,37.61-21.89,57.06-28.08,13.58-4.32,27.64-6.48,41.71-6.48,14.06,0,28.13,2.16,41.71,6.48,19.45,6.18,41.65,15.35,57.06,28.08,48.02,39.66,28.25,104.35,28.25,104.35-28.3,101.98-127.02,101.19-127.02,101.19"></path><g><path class="st1" d="M126.03,151.87c.03,4.85-.63,9.54-1.88,13.99-1.09,3.87-3.83,7.06-7.47,8.77-6.52,3.07-13.81,4.79-21.5,4.79-27.9,0-50.52-22.62-50.52-50.52,0-4.8.67-9.44,1.92-13.83,1.07-3.76,3.73-6.89,7.27-8.57,6.66-3.17,14.13-4.92,22.01-4.87,27.53.18,50.03,22.71,50.18,50.25Z"></path><path class="st1" d="M155.99,151.87c-.03,4.85.63,9.54,1.88,13.99,1.09,3.87,3.83,7.06,7.47,8.77,6.52,3.07,13.81,4.79,21.5,4.79,27.9,0,50.52-22.62,50.52-50.52,0-4.8-.67-9.44-1.92-13.83-1.07-3.76-3.73-6.89-7.27-8.57-6.66-3.17-14.13-4.92-22.01-4.87-27.53.18-50.03,22.71-50.18,50.25Z"></path></g><ellipse class="st2" cx="98.1" cy="138.56" rx="18.29" ry="20.63" transform="translate(-53.21 61.57) rotate(-27.73)"></ellipse><ellipse class="st2" cx="180.44" cy="152.32" rx="20.63" ry="18.29" transform="translate(-38.35 241.14) rotate(-62.27)"></ellipse></g><path class="st0" d="M141.01,194c8.43,0,18.32,7.76,18.32,12.71s-9.89,12.71-18.32,12.71-18.32-7.76-18.32-12.71,9.89-12.71,18.32-12.71Z"></path></svg>