<svg id="Layer_1" xmlns="http://www.w3.org/2000/svg" xmlns:xlink="http://www.w3.org/1999/xlink" version="1.1" viewBox="0 0 428.25 512.08"><defs><style>
      .st0, .st1, .st2 {
        fill: none;
      }
      .st0, .st3 {
        stroke-width: 16.29px;
      }
      .st0, .st3, .st2, .st4 {
        stroke-miterlimit: 10;
      }
      .st0, .st3, .st4 {
        stroke: #181818;
      }
      .st5 {
        stroke-width: 5.21px;
      }
      .st5, .st6, .st7, .st8 {
        fill: #83685d;
      }
      .st5, .st6, .st7, .st8, .st9, .st1, .st10, .st11 {
        stroke-linejoin: round;
      }
      .st5, .st6, .st7, .st8, .st9, .st10, .st11 {
        stroke: #231f20;
      }
      .st5, .st1, .st2 {
        stroke-linecap: round;
      }
      .st6 {
        stroke-width: 6px;
      }
      .st7 {
        stroke-width: 4.9px;
      }
      .st8 {
        stroke-width: 5.21px;
      }
      .st9 {
        stroke-width: 4.71px;
      }
      .st9, .st12 {
        fill: #e9d3c8;
      }
      .st13 {
        fill: #fff;
      }
      .st1 {
        stroke-width: 4.71px;
      }
      .st1, .st2 {
        stroke: #61524a;
      }
      .st14, .st3, .st10, .st11 {
        fill: #282828;
      }
      .st15 {
        fill: #272727;
      }
      .st10 {
        stroke-width: 7.36px;
      }
      .st2 {
        stroke-width: 3px;
      }
      .st11 {
        stroke-width: 6px;
      }
      .st16 {
        clip-path: url(#clippath);
      }
      .st4 {
        fill: #1e1e1e;
        stroke-width: 17.07px;
      }
    </style><clipPath id="clippath"><path class="st3" d="M98.56,148.25c-6.23,0-10.74-6.11-9.06-12.27L127.44,25.07c1.31-4.78,5.93-7.77,10.69-6.91l74.78,10.72c1.08.2,2.18.2,3.26,0l74.78-10.72c4.76-.86,9.39,2.13,10.69,6.91l37.1,110.91c1.68,6.16-2.83,12.27-9.06,12.27-77.04,18.49-154.08,18.43-231.12,0Z"></path></clipPath></defs><g><g><path class="st11" d="M189.88,389.75h-28.11c-9.08,0-16.51,8.16-16.51,18.13v37.32l-19.04,7.31c-9.5,3.65-15.86,13.49-15.86,24.53,0,9.97,7.43,18.13,16.51,18.13h63.01c9.08,0,16.51-8.16,16.51-18.13v-69.16c0-9.97-7.43-18.13-16.51-18.13Z"></path><path class="st11" d="M238.37,389.75h28.11c9.08,0,16.51,8.16,16.51,18.13v37.32l19.04,7.31c9.5,3.65,15.86,13.49,15.86,24.53,0,9.97-7.43,18.13-16.51,18.13h-63.01c-9.08,0-16.51-8.16-16.51-18.13v-69.16c0-9.97,7.43-18.13,16.51-18.13Z"></path></g><g><path class="st7" d="M346.99,337.83c0,70.37-59.48,109.36-132.86,109.36s-132.86-38.99-132.86-109.36,59.48-145.47,132.86-145.47,132.86,75.1,132.86,145.47Z"></path><g><path class="st1" d="M207.76,390.87s8.72,4.08,12.73,14.28"></path><path class="st1" d="M207.76,405.15s8.88-5.93,11.84-16.21"></path></g><path class="st12" d="M219.61,303.53c-3.65.38-7.33.38-10.98,0l-49.27-5.13c-4.36-.36-6.24,5.39-2.51,7.68l40.61,24.91c10.22,6.27,23.1,6.27,33.32,0l40.61-24.91c3.73-2.29,1.85-8.04-2.51-7.68l-49.27,5.13Z"></path></g><path class="st10" d="M355.89,444.13c4.75-.45,7.25-4.56,6.13-7.9-13.41-40.31-14.91-67.97-14.91-112.34s-23.8-63.17-33.96-70.13c-2.55-1.75-6.24-2.38-9.65-1.64l-29.45,6.42c-.24.05-.48.11-.71.18l-57.89,16.2-58.91-16.2c-.24-.07-.48-.12-.72-.18l-29.97-6.42c-3.46-.74-7.22-.11-9.82,1.64-10.34,6.97-34.55,27.81-34.55,70.13s-1.62,72.03-15.27,112.34c-1.13,3.35,1.53,6.75,6.24,7.9,0,0,35.4,7.89,121.94,7.64,2.54,0,17.12-51.17,19.73-51.19,2.55-.02,17.12,51.1,19.73,51.06,38.11-.52,70.99-2.63,122.04-7.51Z"></path><g><path class="st8" d="M67.38,113.81c-1.13,13.58,2.61,27.32,11.6,38.44,19.29,23.87,55.44,26.64,80.73,6.19,14.64-11.84,22.42-28.86,22.65-45.73-38.33.59-76.65,1.06-114.99,1.1Z"></path><path class="st8" d="M311.2,110.77c-21.78.25-43.56.57-65.34.92-.08,17.2,7.73,34.67,22.67,46.75,25.3,20.45,61.44,17.68,80.73-6.19,9.75-12.06,13.32-27.2,11.21-41.87-16.43.07-32.85.2-49.27.38Z"></path><path class="st9" d="M311.2,110.77c-15.59.18-31.17.4-46.76.64-.74,9.77,2.13,19.91,8.85,28.21,13.77,17.04,38.44,19.92,55.11,6.45,10.9-8.81,15.67-22.44,13.82-35.58-10.34.07-20.68.17-31.01.28Z"></path><path class="st9" d="M85.71,113.75c-.7,12.1,4.14,24.24,14.14,32.32,16.67,13.47,41.34,10.58,55.11-6.45,6.35-7.86,9.27-17.36,8.94-26.64-26.06.37-52.12.65-78.18.77Z"></path><path class="st8" d="M307.17,110.82c-63.03.74-126.06,2.11-189.09,2.71-28.86,26.86-44.14,64.13-44.14,96.63,0,58.83,62.76,79.71,140.18,79.71s140.18-20.89,140.18-79.71c0-33.6-16.33-72.31-47.13-99.33Z"></path><path class="st5" d="M205.09,112.35c.64,1.53,1.4,2.98,2.31,4.28l17.87-4.61c-6.73.11-13.45.22-20.18.33Z"></path><path class="st2" d="M192.12,126.74c3.3,6.02,10.26,10.44,17.26,8.94,1.14-.24,2.25-.61,3.31-1.07,2.4-1.03,4.18-3.5,4.42-6.1.24-2.57-1.82-6.38-4.91-5.45-1.4.42-3.37,3-1.4,6.06,0,0,3.74,7.14,11.59,7.14,4.72,0,9.28-1.82,13.74-8.93"></path><ellipse class="st4" cx="214.12" cy="164.43" rx="200.85" ry="76.73"></ellipse><g><path class="st14" d="M98.56,148.25c-6.23,0-10.74-6.11-9.06-12.27L127.44,25.07c1.31-4.78,5.93-7.77,10.69-6.91l74.78,10.72c1.08.2,2.18.2,3.26,0l74.78-10.72c4.76-.86,9.39,2.13,10.69,6.91l37.1,110.91c1.68,6.16-2.83,12.27-9.06,12.27-77.04,18.49-154.08,18.43-231.12,0Z"></path><g class="st16"><ellipse class="st13" cx="212.52" cy="74.46" rx="204.76" ry="84.81"></ellipse><ellipse class="st15" cx="212.52" cy="49.5" rx="204.76" ry="84.81"></ellipse></g><path class="st0" d="M98.56,148.25c-6.23,0-10.74-6.11-9.06-12.27L127.44,25.07c1.31-4.78,5.93-7.77,10.69-6.91l74.78,10.72c1.08.2,2.18.2,3.26,0l74.78-10.72c4.76-.86,9.39,2.13,10.69,6.91l37.1,110.91c1.68,6.16-2.83,12.27-9.06,12.27-77.04,18.49-154.08,18.43-231.12,0Z"></path></g></g></g><path class="st6" d="M230.19,406.95c0,7.39-7.19,15.79-16.07,15.79s-16.07-8.41-16.07-15.79,7.19-10.96,16.07-10.96,16.07,3.57,16.07,10.96Z"></path></svg>