<svg id="Layer_1" xmlns="http://www.w3.org/2000/svg" version="1.1" viewBox="0 0 282.03 443.21"><defs><style>
      .st0 {
        fill: #2b2b2b;
      }
      .st1 {
        fill: none;
        stroke: #2b2b2b;
        stroke-linecap: round;
        stroke-width: 15.41px;
      }
      .st1, .st2 {
        stroke-miterlimit: 10;
      }
      .st2 {
        fill: #60ad54;
        stroke: #529643;
        stroke-width: 7px;
      }
    </style></defs><g><path class="st2" d="M54.62,215.81s-61.95,20.23-41.57,123.43c6.61,33.48,47.5-6.13,43.98-44.86-2.42-26.64,39.72-30.03,39.72-30.03"></path><path class="st2" d="M227.41,215.81s61.95,20.23,41.57,123.43c-6.61,33.48-47.5-6.13-43.98-44.86,2.42-26.64-39.72-30.03-39.72-30.03"></path></g><g><rect class="st2" x="73.31" y="355.07" width="57.9" height="83.87" rx="25.09" ry="25.09"></rect><rect class="st2" x="150.81" y="355.07" width="57.9" height="83.87" rx="25.09" ry="25.09"></rect></g><path class="st2" d="M141.01,401.75c-59.79,0-95.32-8.94-86.82-85.79,8.44-76.36,35.53-115.11,86.82-115.11s78.38,38.75,86.82,115.11c8.5,76.85-27.03,85.79-86.82,85.79Z"></path><path class="st2" d="M141.01,205.83c-67.8,0-108.09,8.94-98.46,85.79s40.29,115.11,98.46,115.11,88.88-38.75,98.46-115.11c9.64-76.85-30.65-85.79-98.46-85.79Z"></path><g><path class="st2" d="M141.01,256.06s-98.71.79-127.02-101.19c0,0-19.78-64.69,28.25-104.35,15.41-12.72,37.61-21.89,57.06-28.08,13.58-4.32,27.64-6.48,41.71-6.48,14.06,0,28.13,2.16,41.71,6.48,19.45,6.18,41.65,15.35,57.06,28.08,48.02,39.66,28.25,104.35,28.25,104.35-28.3,101.98-127.02,101.19-127.02,101.19"></path><g><path class="st1" d="M57.86,109.94s29.77,17.23,51.34,61.26"></path><path class="st1" d="M109.2,106.4s-9.21,38.42-48.94,64.8"></path></g><g><path class="st1" d="M164.24,109.94s29.77,17.23,51.34,61.26"></path><path class="st1" d="M215.58,106.4s-9.21,38.42-48.94,64.8"></path></g></g><path class="st0" d="M141.01,199.85c8.43,0,18.32,7.76,18.32,12.71s-9.89,12.71-18.32,12.71-18.32-7.76-18.32-12.71,9.89-12.71,18.32-12.71Z"></path></svg>