<svg id="Layer_1" xmlns="http://www.w3.org/2000/svg" xmlns:xlink="http://www.w3.org/1999/xlink" version="1.1" viewBox="0 0 189.12 307.96"><defs><style>
      .st0 {
        fill: #575b5c;
      }
      .st0, .st1, .st2, .st3, .st4, .st5, .st6, .st7 {
        stroke: #231f20;
      }
      .st0, .st1, .st3, .st4, .st5 {
        stroke-miterlimit: 10;
      }
      .st0, .st3, .st4 {
        stroke-width: 1.22px;
      }
      .st1 {
        fill: #868b8d;
        stroke-width: 1.29px;
      }
      .st2, .st6 {
        stroke-width: 4.93px;
      }
      .st2, .st6, .st7 {
        stroke-linejoin: round;
      }
      .st2, .st8 {
        fill: #83685d;
      }
      .st3 {
        fill: #585d60;
      }
      .st4 {
        fill: #404247;
      }
      .st5 {
        fill: #9098a1;
        stroke-width: 1.35px;
      }
      .st6 {
        fill: none;
      }
      .st7 {
        fill: #282828;
        stroke-width: 6px;
      }
      .st9 {
        clip-path: url(#clippath);
      }
      .st10 {
        fill: #e9d3c8;
      }
    </style><clipPath id="clippath"><path class="st2" d="M157.63,209.95c10.85-3.13,14.08,16.96,14.04,23.37-.11,16.41-6,36.18-20.61,43.61-16.05,8.16-36.58,4.91-51.58-3.17-14.51-7.82-30.15-25.09-37.23-40.03-5.56-11.74-9.71-24.24-7.98-37.13,1.9-14.12,6.63-27.49,27.47-30.11,0,0,24.92-3.55,29.21,27.83,0,0,5.07,27.65,46.67,15.63Z"></path></clipPath></defs><g><rect class="st5" x="45.37" y="136.96" width="38.43" height="22.91" rx="4.8" ry="4.8" transform="translate(-51.41 35.53) rotate(-22.26)"></rect><rect class="st3" x="65.48" y="152.98" width="24.18" height="54.3" rx="5.86" ry="5.86" transform="translate(-62.46 42.81) rotate(-22.26)"></rect><rect class="st1" x="70.13" y="153.18" width="12.9" height="49.09" rx="4.07" ry="4.07" transform="translate(-61.62 42.26) rotate(-22.26)"></rect><rect class="st0" x="26.49" y="21.24" width="24.18" height="127.31" rx="8.97" ry="8.97" transform="translate(-29.28 20.94) rotate(-22.26)"></rect><rect class="st1" x="17.92" y="18.48" width="15.19" height="68.98" rx="5.24" ry="5.24" transform="translate(-18.17 13.61) rotate(-22.26)"></rect><rect class="st3" x="14.42" y="17.97" width="6.64" height="31.99" rx="2.36" ry="2.36" transform="translate(-11.55 9.25) rotate(-22.26)"></rect><rect class="st3" x="39.03" y="74.57" width="26.56" height="87.71" rx="7.8" ry="7.8" transform="translate(-40.97 28.64) rotate(-22.26)"></rect><rect class="st4" x="32.93" y="100.99" width="46.14" height="52.9" rx="7.99" ry="7.99" transform="translate(-44.11 30.71) rotate(-22.26)"></rect><rect class="st1" x="40.8" y="113.45" width="5.82" height="38.05" rx="1.71" ry="1.71" transform="translate(134.35 238.51) rotate(157.74)"></rect><rect class="st1" x="65.38" y="103.39" width="5.82" height="38.05" rx="1.71" ry="1.71" transform="translate(177.86 209.83) rotate(157.74)"></rect><rect class="st1" x="47.79" y="88.27" width="3.24" height="46.14" transform="translate(-34.91 199.24) rotate(-112.26)"></rect><rect class="st1" x="60.97" y="120.48" width="3.24" height="46.14" transform="translate(-46.55 255.86) rotate(-112.26)"></rect></g><g><g><path class="st8" d="M157.63,209.95c10.85-3.13,14.08,16.96,14.04,23.37-.11,16.41-6,36.18-20.61,43.61-16.05,8.16-36.58,4.91-51.58-3.17-14.51-7.82-30.15-25.09-37.23-40.03-5.56-11.74-9.71-24.24-7.98-37.13,1.9-14.12,6.63-27.49,27.47-30.11,0,0,24.92-3.55,29.21,27.83,0,0,5.07,27.65,46.67,15.63Z"></path><g class="st9"><circle class="st10" cx="81.59" cy="170.07" r="45.5"></circle></g><path class="st6" d="M157.63,209.95c10.85-3.13,14.08,16.96,14.04,23.37-.11,16.41-6,36.18-20.61,43.61-16.05,8.16-36.58,4.91-51.58-3.17-14.51-7.82-30.15-25.09-37.23-40.03-5.56-11.74-9.71-24.24-7.98-37.13,1.9-14.12,6.63-27.49,27.47-30.11,0,0,24.92-3.55,29.21,27.83,0,0,5.07,27.65,46.67,15.63Z"></path></g><path class="st7" d="M171.07,224.53c4.33,5.64,7.42,12.19,8.75,18.77,3.67,18.19-4.06,39.83-18.52,51.48-8.16,6.58-19.79,7.54-29.82,6.25-28.38-3.64-51.59-24.36-66.87-47.41-5.74-8.66-11.5-18.29-13.85-28.51-.42-1.84,1.22-3.72,3.03-3.18,13.28,4.01,52.54,11.37,68-18.09.76-1.45,2.64-1.89,3.92-.88.87.68,1.83,1.22,2.84,1.67,4.79,2.15,8.44,3.12,13.65,3.35,11.4.51,21.79,7.31,28.87,16.54Z"></path></g></svg>